<svg width="200" height="200" viewBox="0 0 200 200" fill="none" xmlns="http://www.w3.org/2000/svg">
<path d="M100 0C44.8596 0 0 44.8596 0 100C0 155.14 44.8596 200 100 200C155.14 200 200 155.14 200 100C200 44.8596 155.14 0 100 0V0ZM100 180.01C55.8861 180.01 19.9905 144.117 19.9905 100C19.9905 55.8829 55.8845 19.9905 100 19.9905C144.115 19.9905 180.01 55.8845 180.01 100C180.01 144.115 144.115 180.01 100 180.01Z" fill="black"/>
<path d="M109.871 97.133C109.952 96.6217 110.029 96.1119 110.029 95.5774V51.987C110.029 46.4682 105.553 41.9922 100.034 41.9922C94.5155 41.9922 90.0395 46.4682 90.0395 51.987V95.5814C90.0395 96.4319 89.9326 106.108 93.0716 108.921L124.001 136.649C125.909 138.361 128.294 139.201 130.67 139.201C133.41 139.201 136.142 138.079 138.117 135.877C141.802 131.765 141.458 125.448 137.347 121.764L109.871 97.133Z" fill="black"/>
</svg>
