<svg width="72" height="72" viewBox="0 0 72 72" fill="none" xmlns="http://www.w3.org/2000/svg">
<path d="M63.5993 0H56.3993C55.7372 0 55.1993 0.537856 55.1993 1.19999V14.3999C54.8431 14.3999 54.5056 14.5584 54.2779 14.8317L48.278 22.0316C47.979 22.3894 47.9158 22.8871 48.1124 23.3082C48.3101 23.7298 48.7339 23.9998 49.1994 23.9998H70.7992C71.2647 23.9998 71.6885 23.7298 71.8862 23.3087C72.0844 22.8866 72.0196 22.3884 71.7206 22.0321L65.7207 14.8322C65.493 14.5584 65.1555 14.3999 64.7993 14.3999V1.19999C64.7993 0.537856 64.2614 0 63.5993 0ZM68.2374 21.5998H51.7612L55.7608 16.7999H64.2378L68.2374 21.5998ZM57.5993 14.3999V2.39998H62.3993V14.3999H57.5993Z" fill="black"/>
<path d="M70.7994 43.1995H28.7998V20.3997C28.7998 19.7376 28.2619 19.1997 27.5998 19.1997H1.19999C0.537856 19.1997 0 19.7376 0 20.3997V70.7993C0 71.4614 0.537856 71.9993 1.19999 71.9993H70.7994C71.4615 71.9993 71.9994 71.4614 71.9994 70.7993V44.3995C71.9994 43.7374 71.4615 43.1995 70.7994 43.1995ZM45.5996 45.5995V56.3994H28.7998V45.5995H45.5996ZM26.3998 21.5997V38.3995H2.39998V21.5997H26.3998ZM2.39998 40.7995H26.3998V69.5993H2.39998V40.7995ZM28.7998 58.7994H45.5996V69.5993H28.7998V58.7994ZM69.5994 69.5993H47.9996V45.5995H69.5994V69.5993Z" fill="black"/>
<path d="M51.5994 67.1994H65.9993C66.6614 67.1994 67.1993 66.6615 67.1993 65.9994V56.3995C67.1993 55.7373 66.6614 55.1995 65.9993 55.1995H51.5994C50.9373 55.1995 50.3994 55.7373 50.3994 56.3995V65.9994C50.3994 66.6615 50.9373 67.1994 51.5994 67.1994ZM52.7994 57.5994H64.7993V64.7994H52.7994V57.5994Z" fill="black"/>
<path d="M34.7998 47.9995H39.5998V50.3995H34.7998V47.9995Z" fill="black"/>
<path d="M34.7998 61.1997H39.5998V63.5997H34.7998V61.1997Z" fill="black"/>
<path d="M21.5996 27.5999H23.9996V32.3998H21.5996V27.5999Z" fill="black"/>
<path d="M21.5996 49.1992H23.9996V55.1992H21.5996V49.1992Z" fill="black"/>
<path d="M50.3994 49.1992H52.7994V51.5992H50.3994V49.1992Z" fill="black"/>
<path d="M57.5996 49.1992H59.9996V51.5992H57.5996V49.1992Z" fill="black"/>
<path d="M64.7998 49.1992H67.1998V51.5992H64.7998V49.1992Z" fill="black"/>
<path d="M1.19999 16.7999H46.7996C47.4617 16.7999 47.9996 16.262 47.9996 15.5999V1.19999C47.9996 0.537856 47.4617 0 46.7996 0H1.19999C0.537856 0 0 0.537856 0 1.19999V15.5999C0 16.262 0.537856 16.7999 1.19999 16.7999ZM45.5996 14.3999H25.1998V2.39998H45.5996V14.3999ZM2.39998 2.39998H22.7998V14.3999H2.39998V2.39998Z" fill="black"/>
<path d="M17.9995 7.2002H20.3995V9.60017H17.9995V7.2002Z" fill="black"/>
<path d="M27.5996 7.2002H29.9996V9.60017H27.5996V7.2002Z" fill="black"/>
<path d="M47.9996 27.5997V25.1997H31.1997V27.5997H33.5997V33.5996H32.3997C31.7376 33.5996 31.1997 34.1375 31.1997 34.7996V39.5996C31.1997 40.2617 31.7376 40.7996 32.3997 40.7996H37.1997C37.8618 40.7996 38.3996 40.2617 38.3996 39.5996V34.7996C38.3996 34.1375 37.8618 33.5996 37.1997 33.5996H35.9997V27.5997H43.1996V33.5996H41.9996C41.3375 33.5996 40.7996 34.1375 40.7996 34.7996C40.7996 38.2206 42.3478 40.7996 44.3996 40.7996C46.4514 40.7996 47.9996 38.2206 47.9996 34.7996C47.9996 34.1375 47.4617 33.5996 46.7996 33.5996H45.5996V27.5997H47.9996ZM35.9997 38.3996H33.5997V35.9996H35.9997V38.3996ZM44.3996 38.3996C44.1575 38.3996 43.5178 37.5585 43.2859 35.9996H45.5128C45.2813 37.5585 44.6417 38.3996 44.3996 38.3996H44.3996Z" fill="black"/>
</svg>
