<svg width="72" height="72" viewBox="0 0 72 72" fill="none" xmlns="http://www.w3.org/2000/svg">
<path d="M67.0699 62.3692L57.4746 63.4245C57.3665 62.5571 57.2101 61.6962 57.0066 60.8459C56.9108 60.4577 56.627 60.1429 56.2511 60.0063C61.4701 54.8767 64.5189 47.9379 64.7669 40.624C66.2832 40.2277 67.51 39.1156 68.0535 37.6457C68.597 36.1759 68.3887 34.5332 67.4945 33.2459C66.6009 31.9587 65.1348 31.1887 63.5676 31.1844H46.1646C44.8094 24.6594 41.367 20.1258 37.229 19.3221V16.7916H39.6278C39.9459 16.7916 40.2505 16.6652 40.4759 16.4403C40.7008 16.2154 40.8272 15.9102 40.8272 15.5922V4.79755C40.8272 3.08356 39.9127 1.49967 38.4284 0.642538C36.9436 -0.214179 35.115 -0.214179 33.6308 0.642538C32.146 1.49979 31.232 3.0837 31.232 4.79755V15.5922C31.232 15.9102 31.3583 16.2154 31.5832 16.4403C31.8081 16.6652 32.1133 16.7916 32.4314 16.7916H34.8302V19.2985C30.6682 20.0064 27.1658 24.6 25.7987 31.1844H8.39573C6.82842 31.1887 5.3624 31.9587 4.46881 33.2459C3.57462 34.5331 3.36632 36.1759 3.90981 37.6457C4.45328 39.1156 5.67999 40.2277 7.19645 40.624C7.44169 47.9538 10.5002 54.9071 15.7363 60.042C15.3599 60.1785 15.0767 60.4933 14.9808 60.8815C14.7774 61.7318 14.621 62.5928 14.5128 63.4602L4.86936 62.3689H4.31785C1.91905 62.3689 0 63.9881 0 65.9672C0.0390882 66.9015 0.475485 67.7744 1.1994 68.366C2.08022 69.1429 3.21536 69.5696 4.38954 69.5654H4.95337L14.5486 68.51C14.6568 69.3774 14.8131 70.2384 15.0166 71.0887C15.1521 71.637 15.6511 72.0166 16.216 72H55.7963C56.3607 72.0166 56.8603 71.637 56.9957 71.0887C57.1987 70.2384 57.355 69.3774 57.4632 68.51L67.1301 69.5777H67.6816C70.0804 69.5777 71.9995 67.9586 71.9995 65.9795L72 65.979C71.9609 65.0451 71.5245 64.1718 70.8006 63.5801C69.7822 62.6715 68.4285 62.2319 67.0707 62.369L67.0699 62.3692ZM33.5825 4.79779C33.5825 3.94054 34.0398 3.14865 34.7819 2.72029C35.5241 2.29193 36.4386 2.29193 37.1807 2.72029C37.9228 3.14865 38.3801 3.94057 38.3801 4.79779V14.393H33.5825V4.79779ZM4.62822 67.1668C3.95677 67.2551 3.27835 67.0694 2.74563 66.6512C2.54056 66.4804 2.41472 66.2335 2.39759 65.9674C2.39759 65.4036 3.21307 64.768 4.31663 64.768H4.62826L14.3917 65.8475V66.0632L4.62822 67.1668ZM43.7164 31.1847H41.6657C41.4183 28.6241 40.8914 26.0985 40.0941 23.6526C41.9253 25.8126 43.1724 28.4058 43.7164 31.1847ZM34.7808 22.8489V31.2447H32.7059C32.8794 28.3431 33.5824 25.4972 34.7808 22.8489ZM37.1796 22.9929C38.3362 25.5839 39.0382 28.3554 39.2545 31.1848H37.1796V22.9929ZM31.8064 23.6767C31.0359 26.1183 30.5294 28.6355 30.2949 31.1847H28.2441C28.7892 28.4154 30.032 25.8312 31.8541 23.6767H31.8064ZM5.99526 35.9823C5.99526 35.3462 6.248 34.7358 6.69777 34.286C7.14754 33.8362 7.75796 33.5835 8.39407 33.5835H63.5666C64.4239 33.5835 65.2158 34.0408 65.6441 34.7829C66.0725 35.525 66.0725 36.4396 65.6441 37.1817C65.2158 37.9238 64.4239 38.3811 63.5666 38.3811H8.39407C7.75796 38.3811 7.14754 38.1284 6.69777 37.6786C6.248 37.2288 5.99526 36.6184 5.99526 35.9823ZM9.59348 40.7799H62.3672C62.213 44.4745 61.2781 48.0952 59.6247 51.4027C57.9707 54.7101 55.6355 57.63 52.772 59.9704H19.26C16.3836 57.637 14.0346 54.7197 12.3683 51.4117C10.702 48.1042 9.75577 44.4804 9.59307 40.7799H9.59348ZM54.835 69.5656H17.1257C16.6818 67.1871 16.6818 64.7477 17.1257 62.3692H54.835C55.2789 64.7477 55.2789 67.1871 54.835 69.5656ZM67.6445 67.1668H67.3329L57.5694 66.0756V65.8598L67.3329 64.7803V64.7798C68.0043 64.692 68.6827 64.8778 69.2154 65.296C69.4173 65.4636 69.5431 65.7056 69.5635 65.9674C69.5635 66.5312 68.748 67.1668 67.6444 67.1668H67.6445Z" fill="black"/>
<path d="M17.9905 19.1907C16.7183 19.1907 15.4979 19.6961 14.5979 20.5957C13.6983 21.4958 13.1929 22.7161 13.1929 23.9883C13.1929 25.2605 13.6983 26.4809 14.5979 27.3809C15.498 28.2804 16.7183 28.7859 17.9905 28.7859C19.2627 28.7859 20.4831 28.2804 21.3831 27.3809C22.2826 26.4808 22.7881 25.2605 22.7881 23.9883C22.7881 22.7161 22.2826 21.4957 21.3831 20.5957C20.483 19.6961 19.2627 19.1907 17.9905 19.1907ZM17.9905 26.3871C17.3544 26.3871 16.744 26.1344 16.2942 25.6846C15.8444 25.2348 15.5917 24.6244 15.5917 23.9883C15.5917 23.3522 15.8444 22.7418 16.2942 22.292C16.744 21.8422 17.3544 21.5895 17.9905 21.5895C18.6266 21.5895 19.237 21.8422 19.6868 22.292C20.1366 22.7418 20.3893 23.3522 20.3893 23.9883C20.3893 24.6244 20.1366 25.2348 19.6868 25.6846C19.237 26.1344 18.6266 26.3871 17.9905 26.3871Z" fill="black"/>
<path d="M11.9932 17.9912C12.9473 17.9912 13.863 17.6121 14.5375 16.9374C15.2121 16.2628 15.5913 15.3471 15.5913 14.3931C15.5913 13.439 15.2122 12.5232 14.5375 11.8487C13.8629 11.1741 12.9472 10.7949 11.9932 10.7949C11.0391 10.7949 10.1233 11.174 9.44878 11.8487C8.77424 12.5234 8.39502 13.439 8.39502 14.3931C8.39502 15.3471 8.77411 16.2629 9.44878 16.9374C10.1234 17.612 11.0391 17.9912 11.9932 17.9912ZM11.9932 13.1936C12.4783 13.1936 12.9157 13.4859 13.101 13.9341C13.2868 14.3823 13.1845 14.8979 12.8413 15.2411C12.4981 15.5844 11.9825 15.6866 11.5343 15.5008C11.0861 15.3156 10.7938 14.8781 10.7938 14.393C10.7938 13.7307 11.3308 13.1936 11.9932 13.1936Z" fill="black"/>
<path d="M17.9902 9.59546C18.9444 9.59546 19.8601 9.21636 20.5346 8.54169C21.2092 7.86703 21.5884 6.95135 21.5884 5.99731C21.5884 5.04327 21.2093 4.12748 20.5346 3.45293C19.8599 2.77839 18.9443 2.39917 17.9902 2.39917C17.0362 2.39917 16.1204 2.77826 15.4459 3.45293C14.7713 4.1276 14.3921 5.04327 14.3921 5.99731C14.3921 6.95135 14.7712 7.86715 15.4459 8.54169C16.1205 9.21624 17.0362 9.59546 17.9902 9.59546ZM17.9902 4.79784C18.4754 4.79784 18.9128 5.09019 19.0981 5.53836C19.2839 5.98653 19.1816 6.50216 18.8384 6.84539C18.4952 7.18863 17.9795 7.29089 17.5313 7.10508C17.0832 6.91981 16.7908 6.48235 16.7908 5.99724C16.7908 5.3349 17.3279 4.79784 17.9902 4.79784Z" fill="black"/>
<path d="M58.7702 43.1787H56.3714C56.3162 46.0149 55.4483 48.7757 53.8709 51.1333C52.2934 53.4914 50.0724 55.3467 47.4717 56.4803L48.4794 58.6634V58.6628C51.4945 57.3344 54.0663 55.1702 55.8899 52.4265C57.7137 49.6822 58.7128 46.4733 58.7701 43.1787L58.7702 43.1787Z" fill="black"/>
</svg>
