<svg width="1378" height="324" viewBox="0 0 1378 324" fill="none" xmlns="http://www.w3.org/2000/svg">
<path d="M1366.07 64.3692L1356.47 65.4245C1356.37 64.5571 1356.21 63.6962 1356.01 62.8459C1355.91 62.4577 1355.63 62.1429 1355.25 62.0063C1360.47 56.8767 1363.52 49.9379 1363.77 42.624C1365.28 42.2277 1366.51 41.1156 1367.05 39.6457C1367.6 38.1759 1367.39 36.5332 1366.49 35.2459C1365.6 33.9587 1364.13 33.1887 1362.57 33.1844H1345.16C1343.81 26.6594 1340.37 22.1258 1336.23 21.3221V18.7916H1338.63C1338.95 18.7916 1339.25 18.6652 1339.48 18.4403C1339.7 18.2154 1339.83 17.9102 1339.83 17.5922V6.79755C1339.83 5.08356 1338.91 3.49967 1337.43 2.64254C1335.94 1.78582 1334.12 1.78582 1332.63 2.64254C1331.15 3.49979 1330.23 5.0837 1330.23 6.79755V17.5922C1330.23 17.9102 1330.36 18.2154 1330.58 18.4403C1330.81 18.6652 1331.11 18.7916 1331.43 18.7916H1333.83V21.2985C1329.67 22.0064 1326.17 26.6 1324.8 33.1844H1307.4C1305.83 33.1887 1304.36 33.9587 1303.47 35.2459C1302.57 36.5331 1302.37 38.1759 1302.91 39.6457C1303.45 41.1156 1304.68 42.2277 1306.2 42.624C1306.44 49.9538 1309.5 56.9071 1314.74 62.042C1314.36 62.1785 1314.08 62.4933 1313.98 62.8815C1313.78 63.7318 1313.62 64.5928 1313.51 65.4602L1303.87 64.3689H1303.32C1300.92 64.3689 1299 65.9881 1299 67.9672C1299.04 68.9015 1299.48 69.7744 1300.2 70.366C1301.08 71.1429 1302.22 71.5696 1303.39 71.5654H1303.95L1313.55 70.51C1313.66 71.3774 1313.81 72.2384 1314.02 73.0887C1314.15 73.637 1314.65 74.0166 1315.22 74H1354.8C1355.36 74.0166 1355.86 73.637 1356 73.0887C1356.2 72.2384 1356.36 71.3774 1356.46 70.51L1366.13 71.5777H1366.68C1369.08 71.5777 1371 69.9586 1371 67.9795L1371 67.979C1370.96 67.0451 1370.52 66.1718 1369.8 65.5801C1368.78 64.6715 1367.43 64.2319 1366.07 64.369L1366.07 64.3692ZM1332.58 6.79779C1332.58 5.94054 1333.04 5.14865 1333.78 4.72029C1334.52 4.29193 1335.44 4.29193 1336.18 4.72029C1336.92 5.14865 1337.38 5.94057 1337.38 6.79779V16.393H1332.58V6.79779ZM1303.63 69.1668C1302.96 69.2551 1302.28 69.0694 1301.75 68.6512C1301.54 68.4804 1301.41 68.2335 1301.4 67.9674C1301.4 67.4036 1302.21 66.768 1303.32 66.768H1303.63L1313.39 67.8475V68.0632L1303.63 69.1668ZM1342.72 33.1847H1340.67C1340.42 30.6241 1339.89 28.0985 1339.09 25.6526C1340.93 27.8126 1342.17 30.4058 1342.72 33.1847ZM1333.78 24.8489V33.2447H1331.71C1331.88 30.3431 1332.58 27.4972 1333.78 24.8489ZM1336.18 24.9929C1337.34 27.5839 1338.04 30.3554 1338.25 33.1848H1336.18V24.9929ZM1330.81 25.6767C1330.04 28.1183 1329.53 30.6355 1329.29 33.1847H1327.24C1327.79 30.4154 1329.03 27.8312 1330.85 25.6767H1330.81ZM1305 37.9823C1305 37.3462 1305.25 36.7358 1305.7 36.286C1306.15 35.8362 1306.76 35.5835 1307.39 35.5835H1362.57C1363.42 35.5835 1364.22 36.0408 1364.64 36.7829C1365.07 37.525 1365.07 38.4396 1364.64 39.1817C1364.22 39.9238 1363.42 40.3811 1362.57 40.3811H1307.39C1306.76 40.3811 1306.15 40.1284 1305.7 39.6786C1305.25 39.2288 1305 38.6184 1305 37.9823ZM1308.59 42.7799H1361.37C1361.21 46.4745 1360.28 50.0952 1358.62 53.4027C1356.97 56.7101 1354.64 59.63 1351.77 61.9704H1318.26C1315.38 59.637 1313.03 56.7197 1311.37 53.4117C1309.7 50.1042 1308.76 46.4804 1308.59 42.7799H1308.59ZM1353.83 71.5656H1316.13C1315.68 69.1871 1315.68 66.7477 1316.13 64.3692H1353.83C1354.28 66.7477 1354.28 69.1871 1353.83 71.5656ZM1366.64 69.1668H1366.33L1356.57 68.0756V67.8598L1366.33 66.7803V66.7798C1367 66.692 1367.68 66.8778 1368.22 67.296C1368.42 67.4636 1368.54 67.7056 1368.56 67.9674C1368.56 68.5312 1367.75 69.1668 1366.64 69.1668H1366.64Z" fill="white"/>
<path d="M1316.99 21.1907C1315.72 21.1907 1314.5 21.6962 1313.6 22.5957C1312.7 23.4958 1312.19 24.7161 1312.19 25.9883C1312.19 27.2605 1312.7 28.4809 1313.6 29.3809C1314.5 30.2805 1315.72 30.7859 1316.99 30.7859C1318.26 30.7859 1319.48 30.2805 1320.38 29.3809C1321.28 28.4808 1321.79 27.2605 1321.79 25.9883C1321.79 24.7161 1321.28 23.4958 1320.38 22.5957C1319.48 21.6962 1318.26 21.1907 1316.99 21.1907ZM1316.99 28.3871C1316.35 28.3871 1315.74 28.1344 1315.29 27.6846C1314.84 27.2348 1314.59 26.6244 1314.59 25.9883C1314.59 25.3522 1314.84 24.7418 1315.29 24.292C1315.74 23.8423 1316.35 23.5895 1316.99 23.5895C1317.63 23.5895 1318.24 23.8423 1318.69 24.292C1319.14 24.7418 1319.39 25.3522 1319.39 25.9883C1319.39 26.6244 1319.14 27.2348 1318.69 27.6846C1318.24 28.1344 1317.63 28.3871 1316.99 28.3871Z" fill="white"/>
<path d="M1310.99 19.9912C1311.95 19.9912 1312.86 19.6121 1313.54 18.9375C1314.21 18.2628 1314.59 17.3471 1314.59 16.3931C1314.59 15.4391 1314.21 14.5233 1313.54 13.8487C1312.86 13.1742 1311.95 12.795 1310.99 12.795C1310.04 12.795 1309.12 13.174 1308.45 13.8487C1307.77 14.5234 1307.4 15.4391 1307.4 16.3931C1307.4 17.3471 1307.77 18.2629 1308.45 18.9375C1309.12 19.612 1310.04 19.9912 1310.99 19.9912ZM1310.99 15.1936C1311.48 15.1936 1311.92 15.486 1312.1 15.9341C1312.29 16.3823 1312.18 16.8979 1311.84 17.2412C1311.5 17.5844 1310.98 17.6867 1310.53 17.5009C1310.09 17.3156 1309.79 16.8781 1309.79 16.393C1309.79 15.7307 1310.33 15.1936 1310.99 15.1936Z" fill="white"/>
<path d="M1316.99 11.5955C1317.94 11.5955 1318.86 11.2164 1319.53 10.5417C1320.21 9.86706 1320.59 8.95138 1320.59 7.99734C1320.59 7.0433 1320.21 6.12751 1319.53 5.45296C1318.86 4.77842 1317.94 4.3992 1316.99 4.3992C1316.04 4.3992 1315.12 4.77829 1314.45 5.45296C1313.77 6.12763 1313.39 7.0433 1313.39 7.99734C1313.39 8.95138 1313.77 9.86718 1314.45 10.5417C1315.12 11.2163 1316.04 11.5955 1316.99 11.5955ZM1316.99 6.79787C1317.48 6.79787 1317.91 7.09022 1318.1 7.53839C1318.28 7.98656 1318.18 8.50219 1317.84 8.84543C1317.5 9.18866 1316.98 9.29092 1316.53 9.10511C1316.08 8.91984 1315.79 8.48238 1315.79 7.99728C1315.79 7.33493 1316.33 6.79787 1316.99 6.79787Z" fill="white"/>
<path d="M1357.77 45.1787H1355.37C1355.32 48.0149 1354.45 50.7757 1352.87 53.1333C1351.29 55.4914 1349.07 57.3467 1346.47 58.4803L1347.48 60.6633V60.6628C1350.49 59.3343 1353.07 57.1701 1354.89 54.4264C1356.71 51.6822 1357.71 48.4733 1357.77 45.1787L1357.77 45.1787Z" fill="white"/>
<path d="M1098.45 152.863C1098.01 153.365 1098.02 154.119 1098.47 154.61C1098.58 154.729 1109.93 166.523 1157.08 167.301C1157.44 167.307 1157.78 167.166 1158.03 166.917C1158.28 166.667 1158.42 166.322 1158.42 165.969L1158.26 154.713L1158.78 154.382C1160.88 156.226 1166.88 160.454 1174.73 157.103C1178.44 155.52 1184.33 155.923 1187.2 159.047C1187.8 159.703 1188.23 160.452 1188.51 161.278C1188.68 161.827 1189.19 162.191 1189.77 162.186C1195.39 162.149 1198.75 159.01 1200.03 156.082C1201.29 153.184 1200.82 150.01 1198.79 147.794C1197.53 146.421 1195.06 144.738 1190.55 144.547C1188.37 144.309 1136.71 138.736 1119.1 141.1C1113.27 141.886 1103.95 146.498 1098.45 152.863L1098.45 152.863ZM1190.36 147.17C1193.28 147.294 1195.53 148.127 1196.85 149.573C1198.19 151.036 1198.48 153.073 1197.63 155.034C1196.75 157.049 1194.47 159.207 1190.64 159.517C1190.26 158.703 1189.76 157.951 1189.14 157.271C1185.36 153.144 1178.32 152.715 1173.7 154.689C1166.83 157.622 1161.7 153.528 1160.3 152.213L1160.8 144.515C1176.43 145.667 1190.04 147.136 1190.36 147.17L1190.36 147.17ZM1119.45 143.703C1127.54 142.618 1143.46 143.294 1158.17 144.324L1157.68 151.969L1156.24 152.883C1155.85 153.129 1155.62 153.551 1155.62 154.01L1155.77 164.645C1118.5 163.85 1104.78 156.059 1101.34 153.582C1106.5 148.211 1114.41 144.382 1119.45 143.704L1119.45 143.703Z" fill="white"/>
<path d="M1170.33 151.892C1169.36 152.783 1167.85 152.718 1166.96 151.745C1166.07 150.773 1166.13 149.262 1167.11 148.371C1168.08 147.479 1169.59 147.545 1170.48 148.517C1171.37 149.49 1171.31 151.001 1170.33 151.892Z" fill="white"/>
<path d="M1194.13 154.979C1193.15 155.87 1191.64 155.805 1190.75 154.832C1189.86 153.86 1189.93 152.349 1190.9 151.458C1191.87 150.566 1193.38 150.632 1194.27 151.605C1195.17 152.577 1195.1 154.088 1194.13 154.979Z" fill="white"/>
<path d="M23.8929 255.6C18.548 255.6 14.2002 259.369 14.2002 264C14.2002 264.318 14.3266 264.624 14.5516 264.849C14.7766 265.074 15.082 265.2 15.4002 265.2H70.6002C70.9184 265.2 71.2238 265.074 71.4488 264.849C71.6738 264.624 71.8002 264.318 71.8002 264C71.8002 259.369 67.4524 255.6 62.1075 255.6H46.6007V253.2H49.0007C49.319 253.2 49.6243 253.074 49.8493 252.849C50.0743 252.624 50.2007 252.318 50.2007 252V247.2C50.2007 246.882 50.0743 246.576 49.8493 246.351C49.6243 246.126 49.319 246 49.0007 246H37.0007C36.6825 246 36.3772 246.126 36.1522 246.351C35.9272 246.576 35.8007 246.882 35.8007 247.2V252C35.8007 252.318 35.9272 252.624 36.1522 252.849C36.3772 253.074 36.6825 253.2 37.0007 253.2H39.4007V255.6H23.8929ZM69.2543 262.8H16.7464C17.4235 260.065 20.3711 258 23.8922 258H62.1071C65.6289 258 68.5758 260.065 69.2529 262.8H69.2543ZM38.201 248.4H47.801V250.8H38.201V248.4ZM41.801 253.2H44.201V255.6H41.801V253.2Z" fill="white"/>
<path d="M71.8 292.8V277.2H75.4C76.6862 277.2 77.8745 276.514 78.5178 275.4C79.1607 274.286 79.1607 272.914 78.5178 271.8C77.8744 270.686 76.6863 270 75.4 270H71.8V268.8C71.8 268.482 71.6736 268.176 71.4486 267.951C71.2236 267.726 70.9182 267.6 70.6 267.6H15.4C15.0818 267.6 14.7764 267.726 14.5514 267.951C14.3264 268.176 14.2 268.482 14.2 268.8V270H10.6C9.31375 270 8.12553 270.686 7.48219 271.8C6.83934 272.914 6.83934 274.286 7.48219 275.4C8.12559 276.514 9.31374 277.2 10.6 277.2H14.2V292.8C14.2 295.06 15.1134 297.224 16.7329 298.8H8.2C7.88179 298.8 7.57643 298.926 7.35143 299.151C7.12643 299.376 7 299.682 7 300V304.8C7 305.118 7.12643 305.424 7.35143 305.649C7.57643 305.874 7.88179 306 8.2 306H77.8C78.1182 306 78.4236 305.874 78.6486 305.649C78.8736 305.424 79 305.118 79 304.8V300C79 299.682 78.8736 299.376 78.6486 299.151C78.4236 298.926 78.1182 298.8 77.8 298.8H69.2671C70.8866 297.224 71.8 295.06 71.8 292.8ZM75.4 272.4C76.0627 272.4 76.6 272.937 76.6 273.6C76.6 274.263 76.0627 274.8 75.4 274.8H71.8V272.4H75.4ZM10.6 274.8C9.93733 274.8 9.4 274.263 9.4 273.6C9.4 272.937 9.93733 272.4 10.6 272.4H14.2V274.8H10.6ZM76.6 301.2V303.6H9.4V301.2H76.6ZM22.6 298.8C21.0094 298.798 19.4843 298.165 18.3593 297.041C17.2348 295.916 16.6022 294.391 16.6 292.8V270H69.4V292.8C69.3979 294.391 68.7652 295.916 67.6407 297.041C66.5157 298.165 64.9906 298.798 63.4 298.8H22.6Z" fill="white"/>
<path d="M23.8 294C23.1635 293.999 22.5539 293.746 22.1039 293.296C21.6539 292.846 21.4011 292.236 21.4 291.6C21.4 290.937 20.8627 290.4 20.2 290.4C19.5373 290.4 19 290.937 19 291.6C19.0011 292.873 19.5073 294.093 20.4074 294.993C21.3074 295.892 22.5272 296.399 23.8 296.4C24.4627 296.4 25 295.863 25 295.2C25 294.537 24.4627 294 23.8 294L23.8 294Z" fill="white"/>
<path d="M254.854 252.891C254.109 251.798 253.079 250.97 251.896 250.486C251.882 249.21 251.494 247.957 250.757 246.875C249.535 245.076 247.504 244 245.324 244C244.003 244 242.727 244.395 241.635 245.138C240.18 246.128 239.208 247.65 238.903 249.425C238.694 250.645 238.816 251.874 239.25 252.999L227.309 261.124C225.652 261.03 223.82 261.282 221.887 261.865L221.806 261.889C221.138 262.048 217.834 262.863 213.5 264.433C212.385 264.836 211.179 265.247 209.903 265.68C199.094 269.361 184.289 274.401 184.005 288.233C183.887 294.128 185.758 298.791 189.413 301.717C192.426 304.134 198.418 305.236 202.71 305.236C204.425 305.236 205.946 305.076 207.234 304.759C213.019 303.339 217.473 299.509 219.148 294.514C222.211 285.376 225.237 281.436 229.126 278.04C232.061 275.483 234.597 273.274 235.307 270.105C235.425 269.57 235.459 268.983 235.413 268.378L245.245 261.687C246.398 262.652 247.866 263.197 249.408 263.197C250.735 263.197 252.023 262.799 253.134 262.044C254.586 261.056 255.566 259.556 255.887 257.819C256.208 256.092 255.84 254.344 254.854 252.892L254.854 252.891ZM231.61 269.277C231.172 271.232 229.169 272.975 226.636 275.183C222.389 278.892 218.88 283.392 215.554 293.308C214.294 297.064 210.846 299.97 206.33 301.078C205.351 301.317 204.099 301.444 202.709 301.444C198.459 301.444 193.66 300.264 191.782 298.757C189.078 296.594 187.699 292.98 187.793 288.308C188.021 277.132 200.831 272.772 211.122 269.266C212.415 268.825 213.637 268.408 214.786 267.994C218.97 266.479 222.11 265.707 222.697 265.568C222.72 265.563 222.755 265.554 222.778 265.548L222.914 265.511C222.931 265.506 222.946 265.502 222.962 265.495C224.284 265.094 225.514 264.89 226.618 264.89C226.954 264.89 227.279 264.909 227.585 264.947C228.739 265.088 229.681 265.492 230.387 266.15C230.475 266.231 230.555 266.311 230.629 266.394C231.155 266.968 231.403 267.569 231.521 267.997C231.712 268.692 231.637 269.153 231.61 269.277L231.61 269.277ZM247.351 258.59C247.378 258.671 247.402 258.763 247.418 258.866C247.404 258.773 247.382 258.681 247.351 258.59ZM252.161 257.129C252.024 257.863 251.614 258.495 251.004 258.909C250.526 259.236 249.973 259.407 249.41 259.407C248.529 259.407 247.735 259.002 247.219 258.286C247.044 257.962 246.775 257.689 246.438 257.511C245.817 257.183 245.065 257.224 244.486 257.62L234.101 264.688C234.093 264.676 234.083 264.665 234.075 264.654C233.931 264.449 233.778 264.25 233.614 264.056C233.58 264.016 233.544 263.977 233.508 263.937C233.336 263.743 233.157 263.554 232.966 263.375C232.803 263.225 232.635 263.082 232.463 262.946C232.379 262.882 232.293 262.823 232.207 262.762C232.114 262.697 232.025 262.626 231.928 262.563L242.811 255.158C243.232 254.87 243.522 254.424 243.611 253.92C243.699 253.416 243.58 252.899 243.283 252.484C243.185 252.347 243.129 252.277 243.095 252.232C242.673 251.612 242.505 250.821 242.633 250.068C242.764 249.318 243.165 248.68 243.762 248.271C244.225 247.957 244.763 247.79 245.32 247.79C246.244 247.79 247.103 248.245 247.621 249.008C248.094 249.7 248.226 250.561 247.984 251.37C247.823 251.915 247.914 252.506 248.235 252.978C248.557 253.45 249.072 253.75 249.64 253.798C250.464 253.868 251.241 254.328 251.714 255.025C252.141 255.643 252.297 256.391 252.161 257.129L252.161 257.129Z" fill="white"/>
<path d="M47.0831 9.01783C46.0186 8.31871 44.7181 8.0749 43.4722 8.34066C42.9814 8.44332 42.4998 8.12908 42.3961 7.6385C42.1376 6.39105 41.3906 5.29891 40.322 4.60611C38.1248 3.17242 35.4485 2.67039 32.8812 3.21023C30.3139 3.75007 28.0664 5.28742 26.6327 7.48464L22.7779 13.3924L21.5219 10.2908L21.5224 10.2907C21.0324 9.07717 20.1309 8.07545 18.9762 7.46044C17.8215 6.84543 16.487 6.65632 15.207 6.92658C14.1805 7.1397 13.2817 7.75405 12.7112 8.63385C12.3063 9.25166 11.5229 9.49903 10.8364 9.22572C9.36266 8.63453 7.74661 8.4937 6.19255 8.82213L3.52301 9.38347C2.58902 9.58096 1.77173 10.1409 1.24994 10.9399C0.728808 11.7392 0.545412 12.7128 0.740811 13.6473L1.99884 19.63C2.68177 22.8674 4.47588 25.7631 7.06992 27.8163C9.22386 29.5209 10.7139 31.9255 11.2808 34.6135L12.3766 39.8251C13.2889 44.2235 15.8612 48.102 19.5586 50.6534L20.2967 54.1638L20.2966 54.1633C20.8311 56.6923 20.6021 59.3231 19.6393 61.7213L19.6394 61.7218C18.5003 64.56 18.2297 67.6727 18.8617 70.6656L19.206 72.3028C19.6008 74.1703 20.7203 75.8049 22.3192 76.8481C23.9182 77.8913 25.8653 78.2577 27.7335 77.8671L53.5686 72.4346C55.4361 72.0397 57.0707 70.9203 58.1139 69.3213C59.1571 67.7224 59.5235 65.7753 59.1329 63.907L58.7887 62.2698C58.1618 59.2758 56.6605 56.5358 54.4748 54.3968C52.6275 52.5889 51.3582 50.273 50.829 47.743L50.019 43.8908L50.6421 12.0133C50.6498 11.5995 50.4443 11.2107 50.0979 10.9847L47.0831 9.01783ZM34.3222 29.0606L31.9296 27.4994C30.9641 26.8731 30.2892 25.8867 30.0557 24.7606C29.9182 24.1014 29.9347 23.4196 30.1043 22.7686L31.361 17.9749L35.7118 21.2462L35.7124 21.2461C39.1794 23.8532 41.1832 27.9673 41.0983 32.3043L40.8607 44.4722L36.9395 41.9136C36.4884 41.6192 36.1328 41.1986 35.9182 40.704C35.7036 40.2093 35.6384 39.6624 35.7315 39.1316L36.5829 34.2665C36.7567 33.273 36.6351 32.2498 36.2335 31.3241C35.8316 30.3991 35.1667 29.6116 34.3222 29.0605L34.3222 29.0606ZM29.1252 36.9793C27.1147 36.1572 25.4303 34.6972 24.3308 32.8246L22.2588 34.0355C23.6383 36.3863 25.7584 38.2133 28.2868 39.2303L28.5726 39.3449L26.9594 46.2549L26.9593 46.2544C23.2085 42.7775 20.6278 38.2236 19.5717 33.219L19.3597 32.2109C19.2498 31.6909 19.3171 31.1491 19.5512 30.6718C19.7852 30.194 20.1723 29.8087 20.6507 29.5768C21.4313 29.1991 22.0935 28.6154 22.5677 27.8894C23.0412 27.163 23.3087 26.3212 23.3401 25.4551C23.3598 24.9238 23.5565 24.4144 23.8996 24.0077C24.2422 23.6012 24.7111 23.3214 25.2312 23.2126L27.6674 22.7003C27.5184 23.5462 27.532 24.4127 27.7067 25.254C28.0698 27.0039 29.1179 28.5364 30.6177 29.509L30.836 29.6515L29.1252 36.9793ZM43.4883 32.8401L43.4878 32.8402C44.3816 35.1541 45.7088 37.2765 47.3976 39.0936L47.7062 39.4262L47.6592 41.8162L43.3675 39.0158L43.4883 32.8401ZM47.7775 35.7692C45.6247 32.7582 44.501 29.1325 44.5734 25.4313C44.646 21.7308 45.9102 18.1518 48.1789 15.2267L47.7775 35.7692ZM28.6427 8.79605C29.7287 7.1318 31.4306 5.96755 33.375 5.55868C35.3194 5.14982 37.3461 5.53002 39.0103 6.61598C39.5447 6.96237 39.9179 7.50852 40.0474 8.13218C40.2289 8.99015 40.7433 9.74142 41.478 10.2209C42.2127 10.7003 43.1075 10.8686 43.966 10.6891C44.589 10.5565 45.2392 10.6782 45.7715 11.0277L47.6001 12.2209L47.3391 12.5052C44.0316 16.0983 42.1877 20.7992 42.1707 25.683C41.4396 24.0051 40.424 22.4658 39.1688 21.1334L39.1071 20.1889C38.7884 15.3985 36.8355 10.862 33.5746 7.33798L31.8145 8.96992L31.8146 8.97045C34.3579 11.7192 36.0104 15.1725 36.5551 18.8774L31.3746 14.9819C31.0547 14.7415 30.6364 14.6762 30.2589 14.8076C29.8815 14.9389 29.5938 15.2502 29.4928 15.6365L28.3199 20.1104L25.7196 20.6572L23.8755 16.1021L28.6427 8.79605ZM8.55803 25.9333C6.40409 24.2287 4.9141 21.8241 4.3472 19.1361L3.08916 13.1534C2.95332 12.5048 3.36817 11.869 4.01655 11.7321L6.68609 11.1708C7.77631 10.9404 8.9105 11.0391 9.94427 11.454C10.7926 11.7914 11.7314 11.8255 12.6015 11.5506C13.4716 11.2757 14.2205 10.7087 14.7208 9.94547C14.9449 9.60001 15.2976 9.35887 15.7005 9.27525C16.4291 9.1215 17.189 9.22885 17.8468 9.57938C18.5046 9.92991 19.0181 10.5002 19.297 11.191L23.4119 21.3543C22.4414 21.8884 21.6867 22.7435 21.277 23.7729L17.1236 21.9529C14.4605 20.7846 12.2997 18.7072 11.0278 16.0917L8.86915 17.1407L8.86904 17.1402C10.3902 20.2685 12.975 22.7541 16.1604 24.1513L20.7684 26.1702C20.5472 26.7165 20.1315 27.1609 19.6009 27.418C18.6411 27.8832 17.8638 28.6565 17.3941 29.6147C16.925 30.5728 16.7898 31.661 17.0103 32.7047L17.2223 33.7128C18.0263 37.5235 19.6414 41.1167 21.9578 44.2475L20.1569 48.1111C17.369 45.9148 15.4452 42.8058 14.725 39.3311L13.6291 34.1195C12.9462 30.8822 11.152 27.9864 8.558 25.9332L8.55803 25.9333ZM21.5543 71.8089L21.21 70.1716C20.6755 67.6426 20.9046 65.0118 21.8674 62.6136L21.8673 62.6131C23.0064 59.7749 23.277 56.6622 22.645 53.6693L21.8892 50.0751L23.6451 46.3091L23.645 46.3086C24.5554 47.3165 25.5403 48.2542 26.592 49.1137L27.3424 52.6823L27.3423 52.6817C27.8768 55.2107 27.6477 57.8416 26.6851 60.2403C25.5459 63.0785 25.2754 66.1912 25.9074 69.1841L26.2516 70.8213C26.6153 72.5557 27.6083 74.0944 29.0391 75.1401L27.2394 75.5186C25.9934 75.7789 24.6955 75.5345 23.6297 74.8395C22.5643 74.1438 21.8179 73.0543 21.5544 71.809L21.5543 71.8089ZM34.2853 74.0368C33.0393 74.2972 31.7414 74.0528 30.6756 73.3577C29.6102 72.662 28.8638 71.5725 28.6002 70.3273L28.256 68.69C27.7215 66.161 27.9505 63.5302 28.9133 61.132L28.9132 61.1315C30.0523 58.2933 30.3229 55.1806 29.6909 52.1877L28.9075 48.4624L32.9736 31.0467L33.0091 31.0699L33.0096 31.0698C33.4608 31.3642 33.8164 31.7848 34.031 32.2795C34.2456 32.7741 34.3107 33.321 34.2176 33.8518L33.3663 38.717C33.1925 39.7104 33.3141 40.7336 33.7156 41.6593C34.1176 42.5843 34.7825 43.3718 35.627 43.923L40.9452 47.3932L41.4341 49.7182C42.061 52.7123 43.5623 55.4523 45.7481 57.5918L45.748 57.5913C47.5953 59.3992 48.8646 61.7151 49.3938 64.2451L49.738 65.8823C49.9984 67.1282 49.754 68.4262 49.0589 69.492C48.3633 70.5574 47.2737 71.3038 46.0285 71.5673L34.2853 74.0368ZM52.794 56.1096C54.6413 57.9174 55.9106 60.2334 56.4398 62.7633L56.7841 64.4006C57.0444 65.6465 56.8 66.9444 56.1049 68.0102C55.4093 69.0756 54.3198 69.8221 53.0745 70.0856L51.2748 70.464C52.1632 68.9305 52.4525 67.1223 52.0868 65.3883L51.7425 63.7511C51.1157 60.757 49.6143 58.017 47.4286 55.878C45.5813 54.0701 44.312 51.7542 43.7828 49.2242L43.2198 46.5464L43.3118 41.8448L47.7443 44.7371L48.4802 48.237L48.4801 48.2365C49.107 51.2306 50.6083 53.9705 52.794 56.1096L52.794 56.1096Z" fill="white"/>
<path fill-rule="evenodd" clip-rule="evenodd" d="M352.031 245.153C351.555 244.495 351.703 243.579 352.361 243.105C353.018 242.629 353.934 242.777 354.409 243.435C354.884 244.092 354.737 245.008 354.079 245.483C353.421 245.958 352.505 245.811 352.031 245.153Z" fill="white"/>
<path fill-rule="evenodd" clip-rule="evenodd" d="M329.744 210.027C329.684 210.399 329.482 210.746 329.154 210.983C328.496 211.459 327.581 211.311 327.105 210.653L321.948 203.515C321.472 202.859 321.62 201.941 322.278 201.466C322.934 200.992 323.851 201.14 324.326 201.796L329.484 208.934C329.721 209.263 329.804 209.657 329.744 210.027" fill="white"/>
<path fill-rule="evenodd" clip-rule="evenodd" d="M327.926 211.872L350.871 246.055C351.273 246.648 351.913 247.052 352.668 247.184C353.465 247.326 354.294 247.138 354.939 246.673C355.583 246.206 356.016 245.486 356.139 244.675C356.249 243.918 356.067 243.184 355.626 242.609L330.386 210.095L327.926 211.872ZM359.03 245.185C358.78 246.734 357.919 248.14 356.657 249.051C355.375 249.979 353.733 250.353 352.158 250.075C350.616 249.804 349.296 248.96 348.438 247.696L324.698 212.33C324.258 211.674 324.416 210.787 325.057 210.323L329.815 206.884C330.456 206.422 331.349 206.55 331.835 207.176L357.949 240.815C358.883 242.031 359.27 243.55 359.043 245.1C359.039 245.128 359.035 245.157 359.03 245.186L359.03 245.185Z" fill="white"/>
<path fill-rule="evenodd" clip-rule="evenodd" d="M290.233 174.286C289.587 178.3 290.494 182.534 293.021 186.032L295.77 189.837C299.458 194.942 309.926 199.459 316.852 202.448L317.86 202.882C318.807 203.294 319.916 203.174 320.751 202.571L323.807 200.362C324.642 199.759 325.106 198.746 325.012 197.716L324.915 196.619C324.252 189.106 323.25 177.751 319.565 172.648L309.153 158.237C308.366 157.148 307.145 156.47 305.804 156.375C304.465 156.282 303.163 156.784 302.232 157.753L294.432 165.874C292.14 168.26 290.73 171.209 290.234 174.286M327.884 198.904C327.639 200.425 326.798 201.823 325.525 202.742L322.469 204.95C320.801 206.156 318.588 206.396 316.693 205.577L315.689 205.143C308.035 201.839 297.553 197.317 293.392 191.556L290.642 187.751C285.345 180.42 286.049 170.364 292.315 163.841L300.116 155.719C301.65 154.121 303.799 153.293 306.01 153.447C308.22 153.603 310.233 154.721 311.532 156.518L321.944 170.929C326.104 176.688 327.107 188.059 327.837 196.362L327.936 197.455C327.98 197.943 327.961 198.429 327.884 198.904" fill="white"/>
<path fill-rule="evenodd" clip-rule="evenodd" d="M314.273 188.614C314.213 188.984 314.012 189.332 313.684 189.57C313.026 190.045 312.11 189.897 311.635 189.24L298.743 171.394C298.268 170.736 298.415 169.821 299.073 169.345C299.73 168.87 300.647 169.018 301.122 169.675L314.014 187.521C314.251 187.849 314.333 188.242 314.273 188.614" fill="white"/>
<path fill-rule="evenodd" clip-rule="evenodd" d="M308.326 192.91C308.266 193.281 308.064 193.63 307.735 193.866C307.078 194.342 306.162 194.194 305.687 193.536L293.655 176.882C293.179 176.224 293.327 175.307 293.985 174.833C294.641 174.357 295.558 174.505 296.034 175.163L308.066 191.817C308.303 192.145 308.385 192.539 308.326 192.91" fill="white"/>
<path fill-rule="evenodd" clip-rule="evenodd" d="M320.222 184.317C320.162 184.688 319.96 185.035 319.632 185.272C318.974 185.748 318.059 185.6 317.583 184.942L303.831 165.907C303.356 165.249 303.503 164.334 304.161 163.858C304.818 163.383 305.735 163.531 306.21 164.188L319.962 183.223C320.199 183.551 320.282 183.945 320.222 184.316" fill="white"/>
<path d="M471.36 289.252C471.176 288.514 471.176 287.884 471.36 287.146L473.946 276.851C474.121 276.157 473.863 275.426 473.292 274.995C472.721 274.564 471.948 274.516 471.327 274.874L461.423 280.593C459.909 281.467 458.157 281.381 456.735 280.362C456.305 280.054 455.867 279.764 455.431 279.471C455.655 278.622 455.957 277.481 456.208 276.525C456.362 275.938 456.206 275.313 455.795 274.866C448.304 266.729 438.789 264.789 431.335 264.009C430.713 263.946 430.1 264.212 429.724 264.713L424.221 272.054C415.641 273.615 408.46 278.211 403.442 285.376C401.083 288.744 401.673 293.285 404.814 295.938C407.555 298.253 410.539 300.116 413.695 301.538C413.745 301.571 413.793 301.609 413.849 301.638C413.986 301.709 414.13 301.757 414.275 301.789C417.621 303.228 421.153 304.178 424.796 304.624C427.482 310.576 431.76 314.728 437.536 316.965C437.743 317.046 437.962 317.085 438.18 317.085C438.468 317.085 438.755 317.015 439.015 316.878C439.472 316.635 439.801 316.206 439.916 315.702L441.649 308.162C441.751 307.716 441.678 307.248 441.446 306.855L439.628 303.786C440.707 303.539 441.788 303.251 442.865 302.924L449.761 307.978C450.068 308.204 450.438 308.323 450.815 308.323C450.91 308.323 451.006 308.315 451.101 308.299C451.572 308.224 451.993 307.961 452.269 307.572L458.485 298.808C458.766 298.412 458.874 297.917 458.781 297.44C458.689 296.962 458.406 296.543 457.996 296.28L457.432 295.915C458.772 295.179 460.284 295.189 461.645 295.974L471.327 301.564C471.946 301.922 472.719 301.874 473.291 301.443C473.862 301.012 474.12 300.282 473.946 299.587L471.36 289.252ZM431.964 267.665C441.146 268.767 447.556 271.548 452.509 276.579C452.426 276.891 452.344 277.205 452.263 277.509C444.849 273.293 436.761 271.201 429.075 271.52L431.964 267.665ZM406.362 287.42C407.995 285.088 409.889 283.066 412.002 281.365C416.198 285.643 416.801 290.995 413.837 297.651C411.463 296.458 409.209 294.984 407.115 293.215C405.392 291.758 405.068 289.267 406.362 287.419L406.362 287.42ZM438.017 308.056L436.928 312.795C433.507 311.056 430.86 308.452 428.913 304.907C429.199 304.913 429.482 304.925 429.768 304.925C431.793 304.925 433.841 304.77 435.896 304.476L438.017 308.056ZM450.41 304.031L446.948 301.494C449.351 300.531 451.734 299.36 454.077 297.991L454.501 298.264L450.41 304.031ZM463.427 292.885C460.762 291.346 457.643 291.45 455.088 293.161C442.647 301.486 428.723 303.455 417.107 299.078C420.603 291.219 419.88 284.579 414.956 279.289C418.027 277.415 421.463 276.129 425.197 275.492C434.753 273.858 445.492 276.691 454.66 283.258C457.214 285.087 460.488 285.247 463.206 283.677L469.466 280.063L467.905 286.277C467.576 287.586 467.576 288.806 467.903 290.117L469.469 296.374L463.427 292.885Z" fill="white"/>
<path d="M1361.49 249.611C1360.67 249.199 1359.69 249.53 1359.28 250.35L1354.87 259.361C1354.41 257.148 1353.39 255.02 1351.26 253.925C1350.45 253.507 1349.46 253.83 1349.05 254.648C1348.65 255.465 1348.97 256.465 1349.79 256.883C1351.78 257.909 1352.02 261.56 1351.87 264.113C1349.58 263.471 1345.85 263.039 1342.57 265.533C1337.69 269.227 1329.15 296.59 1328.83 306.984C1328.75 309.772 1329.2 311.504 1330.27 312.436C1330.47 312.614 1330.72 312.741 1330.98 312.802C1331.57 312.941 1332.21 312.895 1332.92 312.661C1333.83 312.358 1334.85 311.744 1336.03 310.795C1343.79 304.541 1360.37 280.8 1360.35 274.661C1360.33 270.466 1357.75 267.66 1355.88 266.173C1357.78 264.525 1360.77 262.537 1362.77 263.561C1363.58 263.981 1364.57 263.654 1364.97 262.839C1365.38 262.021 1365.05 261.021 1364.24 260.603C1362.1 259.501 1359.82 259.938 1357.8 260.888L1362.23 251.841C1362.64 251.021 1362.3 250.023 1361.49 249.611L1361.49 249.611ZM1357.06 274.652C1357.07 278.427 1345.12 297.164 1336.38 305.982C1334.2 308.181 1332.9 309.028 1332.24 309.357C1332.1 308.607 1331.99 307.026 1332.41 303.886C1332.76 301.317 1333.36 298.378 1334.11 295.322L1335.73 296.156C1336.14 296.366 1336.59 296.389 1336.99 296.256C1337.39 296.124 1337.74 295.841 1337.94 295.434C1338.35 294.617 1338.02 293.616 1337.21 293.199L1334.96 292.044C1335.43 290.343 1335.92 288.637 1336.45 286.951L1339.67 288.608C1340.08 288.818 1340.53 288.841 1340.93 288.708C1341.33 288.576 1341.67 288.293 1341.88 287.886C1342.28 287.069 1341.96 286.068 1341.14 285.651L1337.48 283.764C1338.06 282.037 1338.65 280.375 1339.24 278.811L1343.41 280.96C1343.82 281.169 1344.27 281.192 1344.67 281.06C1345.07 280.928 1345.42 280.644 1345.62 280.237C1346.03 279.42 1345.7 278.42 1344.89 278.002L1340.56 275.776C1340.52 275.757 1340.48 275.759 1340.44 275.743C1342.06 271.819 1343.56 268.946 1344.55 268.198C1345.1 267.779 1345.69 267.484 1346.28 267.289C1349.25 266.303 1352.37 267.791 1352.53 267.869C1352.71 267.967 1357.04 270.355 1357.06 274.652L1357.06 274.652Z" fill="white"/>
<path d="M1058.15 211.666C1056.9 213.566 1054.94 214.887 1052.71 215.334C1051.81 215.518 1051.22 216.398 1051.41 217.299C1051.59 218.201 1052.47 218.782 1053.37 218.598C1056.47 217.977 1059.19 216.142 1060.92 213.503C1061.18 213.135 1061.27 212.679 1061.19 212.239C1061.1 211.799 1060.85 211.412 1060.47 211.164C1060.1 210.917 1059.64 210.831 1059.2 210.925C1058.77 211.02 1058.38 211.287 1058.14 211.666L1058.15 211.666Z" fill="white"/>
<path d="M1081.78 210.049C1081.89 208.83 1081.82 207.6 1081.57 206.401C1080.97 203.421 1079.32 200.755 1076.92 198.887C1074.52 197.019 1071.53 196.072 1068.49 196.216C1065.46 196.36 1062.57 197.587 1060.36 199.674C1058.32 197.036 1055.26 195.373 1051.94 195.09C1048.61 194.807 1045.32 195.929 1042.86 198.183C1040.4 200.439 1038.99 203.621 1038.99 206.958C1035.05 207.482 1031.51 209.616 1029.21 212.849C1026.92 216.083 1026.06 220.127 1026.86 224.014C1027.05 224.949 1027.34 225.863 1027.72 226.74C1026.02 229.611 1025.45 233.01 1026.13 236.275C1026.93 240.379 1029.6 243.875 1033.35 245.73C1037.1 247.585 1041.5 247.587 1045.25 245.735C1050.01 250.932 1053.5 257.158 1055.45 263.925C1055.79 265.139 1056.58 266.179 1057.66 266.838C1058.73 267.498 1060.02 267.729 1061.25 267.486L1071.3 265.436C1072.54 265.178 1073.63 264.464 1074.36 263.437C1075.09 262.409 1075.41 261.143 1075.25 259.892C1074.29 252.398 1075.27 244.783 1078.08 237.771C1078.64 237.725 1079.21 237.647 1079.76 237.535C1083.87 236.701 1087.41 234.109 1089.44 230.442C1091.47 226.776 1091.79 222.403 1090.31 218.479C1088.84 214.556 1085.72 211.474 1081.78 210.048L1081.78 210.049ZM1071.95 260.323C1072.06 261.185 1071.49 261.991 1070.64 262.172L1060.59 264.222C1059.73 264.395 1058.88 263.868 1058.66 263.019C1056.61 255.935 1052.99 249.401 1048.08 243.901C1048.9 243.229 1049.63 242.463 1050.26 241.62C1053.35 245.257 1056.12 249.146 1058.56 253.245C1058.92 253.882 1059.64 254.216 1060.35 254.071C1060.43 254.055 1060.52 254.033 1060.59 254.003C1061.36 253.721 1061.82 252.919 1061.65 252.113C1060.64 247.042 1059.9 241.919 1059.43 236.769C1060.65 236.581 1061.84 236.255 1062.98 235.798C1063.04 241.118 1063.7 246.416 1064.95 251.587C1065.18 252.345 1065.91 252.838 1066.7 252.768C1066.76 252.762 1066.82 252.753 1066.88 252.741C1067.59 252.596 1068.12 252.015 1068.2 251.299C1068.91 246.37 1070.01 241.506 1071.49 236.751C1072.48 237.159 1073.51 237.455 1074.56 237.633C1071.88 244.877 1070.98 252.66 1071.95 260.324L1071.95 260.323ZM1051.97 238.51C1052.25 237.816 1052.46 237.1 1052.62 236.37C1053.76 236.697 1054.93 236.891 1056.11 236.951C1056.23 239.292 1056.6 242.162 1057 244.822C1055.34 242.546 1053.56 240.307 1051.97 238.51L1051.97 238.51ZM1066.36 233.944C1066.5 233.84 1066.66 233.752 1066.8 233.643L1066.8 233.642C1067.34 234.174 1067.92 234.661 1068.54 235.101C1067.9 237.045 1067.24 239.382 1066.66 241.777C1066.37 239.176 1066.27 236.559 1066.36 233.944L1066.36 233.944ZM1079.1 234.275L1079.1 234.275C1077.1 234.687 1075.02 234.531 1073.11 233.824C1071.19 233.117 1069.51 231.888 1068.26 230.276C1067.97 229.904 1067.53 229.674 1067.06 229.642C1066.59 229.613 1066.13 229.783 1065.79 230.11C1063.98 231.843 1061.69 233.001 1059.23 233.439C1056.76 233.876 1054.22 233.574 1051.92 232.568C1051.42 232.342 1050.83 232.378 1050.36 232.668C1049.89 232.957 1049.59 233.461 1049.57 234.013C1049.45 236.988 1048.03 239.761 1045.69 241.603C1043.35 243.446 1040.33 244.174 1037.41 243.596C1034.48 243.018 1031.96 241.191 1030.5 238.597C1029.04 236.003 1028.79 232.9 1029.81 230.102C1031.91 232.617 1034.8 234.339 1038.01 234.982C1038.92 235.164 1039.79 234.579 1039.98 233.678C1040.16 232.776 1039.57 231.898 1038.67 231.716C1035.44 231.051 1032.66 228.995 1031.09 226.095C1029.37 222.709 1029.53 218.674 1031.5 215.43C1033.47 212.186 1036.99 210.194 1040.78 210.165C1041.27 210.159 1041.72 209.945 1042.03 209.579C1042.34 209.214 1042.48 208.73 1042.41 208.254C1042 205.525 1042.93 202.765 1044.9 200.833C1046.87 198.902 1049.65 198.033 1052.37 198.497C1055.09 198.961 1057.42 200.703 1058.64 203.178C1058.9 203.702 1059.41 204.052 1059.99 204.102C1060.58 204.151 1061.14 203.893 1061.48 203.42C1063.18 201.078 1065.86 199.647 1068.75 199.541C1071.65 199.436 1074.42 200.667 1076.29 202.88C1078.15 205.092 1078.89 208.04 1078.3 210.871C1077.91 212.601 1077.03 214.182 1075.76 215.425C1074.5 216.667 1072.9 217.517 1071.16 217.874C1070.26 218.058 1069.68 218.937 1069.86 219.839C1070.05 220.74 1070.93 221.322 1071.83 221.138C1076.03 220.277 1079.5 217.333 1081.03 213.33C1083.96 214.517 1086.25 216.915 1087.29 219.908C1088.33 222.902 1088.02 226.199 1086.45 228.951C1084.88 231.704 1082.2 233.645 1079.1 234.275L1079.1 234.275Z" fill="white"/>
<path d="M222.161 51.0442C222.212 51.4361 222.3 51.6183 222.244 51.758C221.4 54.0578 221.159 56.5553 219.977 58.7438C218.148 62.126 218.613 65.4152 220.451 68.6079C223.588 74.0141 226.741 79.4046 229.909 84.7796L229.909 84.7791C231.814 88.11 233.018 91.7945 233.45 95.607C233.869 98.1156 232.946 100.661 231.017 102.318C228.513 104.625 225.391 106.15 222.034 106.709C220.901 106.923 219.753 107.082 218.621 107.231C217.298 107.453 215.939 107.295 214.701 106.775C214.261 106.573 213.787 106.451 213.369 106.247C211.838 105.397 210.017 105.239 208.363 105.813C207.564 106.093 206.58 105.876 205.683 105.812C204.786 105.747 203.883 105.616 202.992 105.465C201.075 105.271 199.406 104.073 198.608 102.319C198.454 101.863 198.153 101.472 197.752 101.207C197.351 100.941 196.873 100.817 196.394 100.853C193.84 100.664 191.325 100.316 189.11 98.9455C188.436 98.6418 187.791 98.2774 187.183 97.8567C183.995 95.9505 182.718 93.121 182.377 89.7445C181.793 83.7605 184.27 78.9439 188.819 75.244L188.819 75.2445C190.881 73.7378 193.12 72.489 195.485 71.5251C200.363 69.3736 204.914 66.5461 209.004 63.1246C210.272 62.1005 211.38 60.8929 212.291 59.5419C213.394 57.6228 213.685 55.3437 213.099 53.2094C212.861 52.1441 212.646 51.0765 212.477 49.9984L212.477 49.999C212.498 49.6872 212.572 49.3817 212.696 49.0957L213.081 49.014L214.275 51.4948C214.497 50.8838 214.683 50.389 214.906 49.7714C216.617 50.6322 216.14 52.3567 216.827 53.889C217.418 52.7474 217.855 51.7877 218.4 50.8977C218.945 50.0077 219.354 49.0775 220.447 48.6636C221.175 49.4537 220.817 50.148 220.441 50.8529C219.835 51.9034 219.205 52.9336 218.612 53.9942L218.612 53.9937C218.28 54.6288 218.048 55.3116 217.923 56.0173C219.358 54.4088 220.16 52.3102 222.161 51.0442L222.161 51.0442ZM218.65 79.2694C220.429 79.9424 220.53 81.2447 220.251 82.8418C219.709 85.9453 219.121 89.0592 218.884 92.2C218.594 96.007 216.846 99.1171 214.786 102.158L214.785 102.159C214.379 102.669 213.939 103.153 213.47 103.606C214.863 104.603 216.578 105.046 218.28 104.848C222.294 104.406 225.933 103.253 228.817 100.156C230.059 98.9935 230.69 97.3196 230.524 95.6263C230.177 91.8664 229.018 88.2262 227.127 84.9577C224.315 80.2826 221.48 75.6188 218.622 70.967C218.252 70.3584 217.847 69.771 217.459 69.1725L217.098 69.2453C217.227 71.3581 217.362 73.4792 217.492 75.497C216.438 76.139 215.908 75.6746 215.609 74.9229L215.609 74.9235C215.404 74.3521 215.282 73.7543 215.244 73.1482C215.079 71.2457 214.957 69.3396 214.81 67.3029C214.55 67.5602 214.306 67.8325 214.078 68.1181C213.198 69.3647 212.346 70.6181 211.453 71.8621C211.033 72.4468 210.602 73.0501 209.753 73.085C208.905 73.1199 208.555 72.6991 208.839 71.9792L208.839 71.9796C209.121 71.3777 209.454 70.8015 209.835 70.2568C211.054 68.2455 212.326 66.2541 213.493 64.2153C213.922 63.617 214.102 62.8753 213.995 62.1469C213.001 63.2343 212.152 64.2038 211.22 65.0655L211.219 65.0654C208.107 67.8812 204.6 70.2277 200.809 72.0301C198.63 73.0927 196.436 74.1296 194.247 75.1755C189.221 77.3782 185.711 82.0479 184.991 87.4879C184.702 89.1332 184.904 90.8275 185.57 92.3591C186.237 93.8908 187.339 95.1926 188.741 96.1024C189.608 96.662 190.505 97.1748 191.427 97.6387C193.089 98.4732 194.919 98.9178 196.778 98.9384C196.379 90.9618 198.437 83.6632 201.473 76.6015C203.545 76.8786 204.025 77.3089 203.698 78.6538L203.699 78.6533C203.134 81.3861 202.399 84.0804 201.498 86.7212C199.937 90.6346 199.645 94.9393 200.663 99.0277C200.914 100.221 201.595 101.28 202.577 102.004C203.658 102.919 205.084 103.316 206.482 103.092C209.886 102.458 212.623 100.779 214.023 97.5114C214.581 95.9707 214.98 94.3765 215.215 92.7546C216.021 88.7149 216.777 84.6708 217.513 80.6142C217.66 79.8902 217.937 79.3809 218.651 79.269L218.65 79.2694Z" fill="white"/>
<path d="M747.104 285.497L746.858 285.02C746.366 284.107 745.636 283.344 744.746 282.812C743.855 282.28 742.836 282 741.799 282H713.187C712.379 282.007 711.664 282.525 711.406 283.291L710.825 284.904H626.897C625.849 284.904 625 285.753 625 286.801V290.596C625.002 291.311 625.406 291.965 626.045 292.286L628.846 293.641C629.149 297.041 630.713 300.204 633.23 302.509C635.747 304.813 639.036 306.094 642.448 306.095H693.079C696.493 306.093 699.781 304.813 702.299 302.509C704.816 300.204 706.38 297.041 706.682 293.641L707.973 293.022L707.663 293.9C707.421 294.581 707.588 295.34 708.092 295.859C708.596 296.376 709.35 296.563 710.038 296.338L710.645 296.145C724.313 291.692 727.991 290.492 739.695 293.564C739.981 293.607 740.273 293.607 740.559 293.564C743.14 293.448 746.342 293.022 747.619 290.763C748.368 289.343 748.213 287.601 747.103 285.498L747.104 285.497ZM707.185 289.137L703.958 290.75C703.318 291.072 702.914 291.725 702.912 292.441C702.91 295.055 701.869 297.561 700.021 299.41C698.173 301.258 695.666 302.298 693.053 302.302H642.448C639.834 302.298 637.328 301.258 635.48 299.41C633.631 297.561 632.591 295.055 632.588 292.441C632.586 291.725 632.182 291.072 631.542 290.75L628.793 289.369V288.647H707.455L707.185 289.137ZM744.264 288.892C744.264 288.892 743.812 289.615 740.392 289.77C728.777 286.802 723.924 287.86 712.541 291.526L714.592 285.796L741.799 285.795C742.517 285.796 743.177 286.193 743.515 286.827L743.759 287.279C744.328 288.35 744.302 288.892 744.264 288.892L744.264 288.892Z" fill="white"/>
<path d="M125.031 189.164C107.673 189.164 89 186.109 89 179.373C89 177.196 91.3026 173.859 96.4257 173.263H96.4252C97.2907 173.164 98.0728 173.785 98.1724 174.649C98.2716 175.515 97.651 176.297 96.7856 176.397C93.2922 176.804 92.0859 178.888 92.0859 179.404C92.0859 181.676 103.694 186.062 124.984 186.062C146.274 186.062 157.882 181.675 157.882 179.404C157.882 178.151 156.002 177.039 153.182 176.647C152.318 176.53 151.711 175.734 151.828 174.869C151.945 174.004 152.74 173.397 153.606 173.514C158.164 174.141 161 176.396 161 179.373C161.062 186.109 142.389 189.164 125.031 189.164H125.031Z" fill="white"/>
<path d="M125.031 159.744C120.018 159.744 95.0308 159.446 95.0308 153.477C95.0308 148.778 110.775 147.54 120.096 147.211V147.211C120.961 147.19 121.681 147.873 121.702 148.739C121.724 149.604 121.04 150.323 120.175 150.344C107.877 150.705 100.42 152.287 98.4457 153.477C100.796 154.871 110.618 156.61 124.968 156.61C139.319 156.61 149.141 154.856 151.491 153.477C149.517 152.334 142.092 150.751 129.762 150.344H129.763C128.897 150.323 128.213 149.604 128.235 148.739C128.257 147.873 128.976 147.19 129.841 147.211C139.24 147.478 154.906 148.637 154.906 153.478C155.032 159.446 130.045 159.744 125.032 159.744L125.031 159.744Z" fill="white"/>
<path d="M129.62 179.81C129.459 179.826 129.296 179.826 129.135 179.81C128.132 179.645 127.239 179.079 126.659 178.244L125.876 177.132C125.563 176.693 125.391 176.818 125.328 176.865L121.897 179.121C121.094 179.668 120.094 179.839 119.156 179.591C118.034 179.262 117.116 178.453 116.649 177.382L115.975 175.988C115.875 175.745 115.692 175.545 115.458 175.424C115.371 175.421 115.285 175.455 115.223 175.518L112.968 177.429C112.226 178.045 111.258 178.318 110.304 178.181C109.267 177.978 108.359 177.354 107.798 176.458L106.231 174.077C106.146 173.919 106.007 173.797 105.839 173.732C105.759 173.727 105.68 173.756 105.62 173.811L103.85 175.205C103.007 175.873 101.898 176.106 100.858 175.831C99.5944 175.426 98.5994 174.443 98.1793 173.184C97.9915 172.698 97.7565 172.463 97.5997 172.417C97.4429 172.369 97.5997 172.417 97.4271 172.417V172.416C97.0647 172.631 96.6309 172.69 96.2244 172.581C95.8174 172.472 95.4717 172.204 95.265 171.837C94.848 171.095 95.0982 170.157 95.8294 169.722C96.6718 169.233 97.6889 169.147 98.602 169.487C99.7481 169.939 100.636 170.873 101.03 172.041C101.249 172.589 101.516 172.793 101.641 172.824C101.766 172.855 101.641 172.824 101.86 172.824L103.631 171.288C104.371 170.724 105.311 170.486 106.231 170.631C107.268 170.835 108.175 171.458 108.738 172.354L110.305 174.719H110.304C110.387 174.889 110.533 175.019 110.712 175.08C110.712 175.08 110.869 175.08 110.931 174.986L113.187 173.153V173.153C113.985 172.481 115.049 172.215 116.069 172.432C117.266 172.722 118.261 173.549 118.764 174.672L119.421 176.004H119.422C119.513 176.253 119.699 176.456 119.939 176.568H120.126L123.557 174.249H123.558C124.337 173.731 125.293 173.549 126.208 173.747C127.122 173.945 127.919 174.505 128.414 175.299L129.197 176.412L129.198 176.411C129.286 176.559 129.425 176.67 129.589 176.725C129.665 176.729 129.739 176.7 129.792 176.646L133.458 173.795V173.795C134.17 173.215 135.084 172.945 135.996 173.043C136.996 173.208 137.884 173.774 138.456 174.61L138.973 175.315C139.13 175.534 139.286 175.612 139.365 175.612C139.443 175.612 139.553 175.612 139.709 175.377L142.232 172.244H142.231C142.925 171.38 143.983 170.892 145.09 170.922C146.197 170.953 147.226 171.5 147.871 172.401C148.012 172.574 148.153 172.699 148.263 172.683C148.372 172.668 148.576 172.542 148.78 172.135L149.234 171.242L149.234 171.241C149.727 170.253 150.605 169.512 151.662 169.19C152.526 168.91 153.467 169.001 154.262 169.44C155.024 169.851 155.308 170.801 154.897 171.563C154.486 172.324 153.535 172.608 152.774 172.197C152.724 172.178 152.668 172.178 152.617 172.197C152.401 172.312 152.234 172.501 152.147 172.73L151.677 173.639C151.394 174.251 150.953 174.778 150.4 175.166C149.847 175.554 149.202 175.789 148.529 175.847C147.283 175.905 146.096 175.312 145.396 174.281C145.098 173.889 145.004 173.843 144.691 174.281L142.153 177.414H142.153C141.474 178.318 140.398 178.835 139.268 178.797C138.138 178.76 137.098 178.173 136.482 177.226L135.996 176.443C135.855 176.239 135.714 176.145 135.636 176.145C135.571 176.114 135.496 176.114 135.432 176.145L131.719 179.122C131.115 179.577 130.377 179.819 129.62 179.811L129.62 179.81Z" fill="white"/>
<path d="M125.031 183.821C120.018 183.821 95.0308 183.524 95.0308 177.555V153.461C95.0308 152.596 95.7326 151.894 96.5975 151.894C97.4625 151.894 98.1643 152.596 98.1643 153.461V177.305C99.5112 178.527 108.582 180.689 125.031 180.689C141.479 180.689 150.55 178.496 151.897 177.273V153.462C151.897 152.596 152.599 151.895 153.464 151.895C153.879 151.895 154.278 152.06 154.572 152.354C154.865 152.648 155.031 153.046 155.031 153.462V177.555C155.031 183.555 130.043 183.821 125.03 183.821L125.031 183.821Z" fill="white"/>
<path d="M125.031 155.483C122.823 155.483 118.248 155.483 118.248 150.783C118.248 148.36 119.541 146.12 121.64 144.909C123.738 143.697 126.324 143.697 128.423 144.909C130.521 146.12 131.814 148.36 131.814 150.783C131.814 155.483 127.24 155.483 125.031 155.483ZM125.031 147.149V147.149C124.063 147.149 123.135 147.534 122.45 148.218C121.766 148.903 121.381 149.831 121.381 150.799C121.381 151.77 121.381 152.365 125.031 152.365C128.681 152.365 128.681 151.786 128.681 150.799C128.681 149.831 128.297 148.903 127.613 148.218C126.928 147.533 126 147.149 125.031 147.149L125.031 147.149Z" fill="white"/>
<path d="M956.722 284.212C956.578 283.641 956.054 283.24 955.459 283.255C955.193 283.263 951.662 283.391 947.225 284.569C956.755 272.264 963.297 258.721 958.406 254.439C953.517 250.159 940.958 258.434 930.019 269.506C930.599 264.947 930.262 261.433 930.232 261.17C930.173 260.579 929.709 260.11 929.117 260.044C928.526 259.979 927.975 260.332 927.791 260.89C925.311 268.445 922.799 271.42 922.651 271.618C920.921 274.468 913.81 282.6 913.713 282.711C908.853 288.598 906.385 294.037 906.275 294.281C902.092 303.834 909.013 310.457 909.082 310.521C909.09 310.532 909.102 310.543 909.111 310.551C909.147 310.582 909.193 310.581 909.233 310.608C909.262 310.642 909.27 310.69 909.305 310.721C909.315 310.729 909.327 310.74 909.338 310.746C909.414 310.808 916.897 316.79 925.818 311.373C926.029 311.242 931.098 308.076 936.318 302.453C936.39 302.371 943.512 294.245 946.256 292.008C946.281 291.98 948.895 289.094 956.056 285.637C956.589 285.377 956.866 284.784 956.723 284.211L956.722 284.212ZM929.652 281.066C928.771 282.082 927.616 283.425 926.298 284.983C925.826 284.375 925.414 283.785 925.038 283.207C925.478 282.512 925.768 282.052 925.816 281.973C926.601 280.742 927.242 279.455 927.784 278.153C928.238 279.01 928.844 280.006 929.652 281.066L929.652 281.066ZM931.908 280.874C932.99 279.637 934.039 278.458 935.07 277.309C935.747 278.06 936.47 278.813 937.299 279.538C937.751 279.934 938.249 280.307 938.748 280.683C937.768 281.826 936.765 282.991 935.707 284.2L935.497 284.439C933.968 283.408 932.726 282.242 931.727 281.085C931.786 281.012 931.846 280.944 931.908 280.874L931.908 280.874ZM948.267 258.039C948.576 258.584 949.021 259.281 949.586 260.03C948.189 261.311 946.713 262.734 945.221 264.228C944.328 263.097 943.667 262.049 943.238 261.283C945.032 259.984 946.726 258.886 948.266 258.039L948.267 258.039ZM956.759 256.32C956.773 256.332 956.779 256.35 956.793 256.362C956.444 257.349 955.359 259.21 953.568 261.829C952.886 261.303 952.294 260.742 951.771 260.168C954.103 258.074 955.787 256.765 956.71 256.295C956.726 256.304 956.745 256.307 956.759 256.32L956.759 256.32ZM951.859 262.5C952.108 262.718 952.387 262.925 952.662 263.132C951.646 264.568 950.457 266.185 949.084 267.978C948 267.195 947.054 266.321 946.245 265.443C947.849 263.84 949.303 262.442 950.595 261.244C950.98 261.664 951.39 262.089 951.859 262.5L951.859 262.5ZM953.709 270.228C952.515 269.889 951.411 269.421 950.417 268.846C951.685 267.186 952.894 265.553 953.968 264.01C954.639 264.406 955.365 264.747 956.153 265.022C955.537 266.6 954.713 268.355 953.709 270.228L953.709 270.228ZM949.983 276.439C948.463 276.01 947.081 275.385 945.845 274.627C947.048 273.147 948.27 271.617 949.463 270.083C950.516 270.706 951.679 271.222 952.951 271.613C952.079 273.15 951.09 274.763 949.983 276.439L949.983 276.439ZM945.642 282.507C943.96 281.986 942.438 281.247 941.072 280.375C942.228 279.012 943.51 277.476 944.85 275.845C946.112 276.635 947.521 277.296 949.081 277.784C948.03 279.315 946.88 280.896 945.642 282.507L945.642 282.507ZM944.533 273.746C943.235 272.787 942.121 271.717 941.184 270.651C942.574 269.177 943.891 267.817 945.13 266.56C945.614 267.083 946.126 267.606 946.704 268.112C947.144 268.498 947.622 268.87 948.118 269.23C947.023 270.643 945.831 272.148 944.533 273.746L944.533 273.746ZM944.094 265.358C942.77 266.703 941.45 268.077 940.175 269.427C938.974 267.874 938.17 266.484 937.743 265.666C939.198 264.402 940.602 263.256 941.959 262.227C942.44 263.075 943.153 264.186 944.094 265.358L944.094 265.358ZM936.534 266.738C937.038 267.686 937.878 269.078 939.077 270.601C937.655 272.125 936.31 273.589 935.118 274.908C933.813 273.264 932.891 271.751 932.337 270.738C933.764 269.309 935.165 267.973 936.534 266.738L936.534 266.738ZM940.1 271.812C940.718 272.507 941.388 273.205 942.155 273.876C942.586 274.254 943.058 274.613 943.539 274.967C942.359 276.405 941.106 277.908 939.778 279.478C938.377 278.431 937.167 277.275 936.143 276.122C937.513 274.601 938.83 273.167 940.1 271.812L940.1 271.812ZM932.531 284.176C933.111 284.684 933.751 285.173 934.435 285.639C933.242 286.987 932.074 288.298 930.953 289.535C929.554 288.514 928.338 287.374 927.314 286.212C928.379 284.952 929.51 283.637 930.672 282.295C931.23 282.929 931.83 283.563 932.531 284.176L932.531 284.176ZM911.268 308.283C911.294 308.019 911.34 307.756 911.38 307.496C911.958 306.416 912.902 304.912 914.182 303.048C914.559 303.448 914.899 303.849 915.342 304.237C915.548 304.418 915.795 304.58 916.014 304.755C914.365 306.247 913.017 307.367 912.032 308.071C911.779 308.145 911.524 308.225 911.268 308.283L911.268 308.283ZM915.086 301.757C915.941 300.551 916.911 299.228 918.012 297.774C918.527 298.333 919.073 298.89 919.691 299.431C920.016 299.715 920.4 299.974 920.756 300.247C919.455 301.537 918.265 302.676 917.18 303.687C916.377 303.075 915.693 302.422 915.086 301.757L915.086 301.757ZM918.969 296.524C919.935 295.268 920.986 293.933 922.117 292.522C922.71 293.183 923.345 293.838 924.068 294.471C924.477 294.829 924.958 295.151 925.407 295.489C924.152 296.804 922.963 298.022 921.842 299.15C920.746 298.332 919.782 297.43 918.969 296.524L918.969 296.524ZM923.1 291.303C924.105 290.065 925.185 288.759 926.311 287.415C926.96 288.141 927.65 288.857 928.437 289.546C928.892 289.944 929.377 290.332 929.881 290.707C928.704 291.994 927.559 293.226 926.468 294.38C925.168 293.428 924.042 292.368 923.1 291.303L923.1 291.303ZM925.27 286.205C924.261 287.41 923.181 288.711 922.082 290.062C921.794 289.689 921.528 289.324 921.282 288.968C922.327 287.411 923.323 285.886 924.114 284.653C924.465 285.16 924.856 285.68 925.27 286.205L925.27 286.205ZM921.077 291.3C920.023 292.604 918.966 293.942 917.934 295.273C917.729 295.01 917.53 294.749 917.348 294.494C918.24 293.356 919.29 291.888 920.348 290.346C920.57 290.661 920.821 290.981 921.077 291.3L921.077 291.3ZM916.954 296.55C915.923 297.905 914.936 299.238 914.029 300.517C913.946 300.407 913.876 300.305 913.795 300.196C914.767 298.236 915.773 296.662 916.368 295.8C916.55 296.046 916.75 296.296 916.954 296.55L916.954 296.55ZM913.096 301.856C913.037 301.942 912.983 302.023 912.925 302.109C912.969 302.006 913.008 301.899 913.054 301.799C913.069 301.82 913.079 301.837 913.096 301.856L913.096 301.856ZM917.314 305.698C917.328 305.706 917.342 305.714 917.353 305.72C917.294 305.755 917.229 305.79 917.17 305.825C917.216 305.782 917.264 305.741 917.314 305.698L917.314 305.698ZM918.863 304.765C918.754 304.703 918.647 304.639 918.54 304.574C919.676 303.521 920.858 302.375 922.054 301.187C922.314 301.353 922.606 301.493 922.879 301.649C922.066 302.383 920.653 303.571 918.863 304.765L918.863 304.765ZM924.027 300.544C923.738 300.387 923.451 300.231 923.177 300.062C924.363 298.865 925.546 297.638 926.703 296.421C927.031 296.629 927.408 296.801 927.757 296.99C926.348 298.266 925.021 299.513 924.027 300.544L924.027 300.544ZM928.968 295.908C928.567 295.702 928.171 295.489 927.797 295.262C928.987 293.998 930.125 292.765 931.185 291.608C931.713 291.941 932.264 292.258 932.838 292.553C931.714 293.512 930.349 294.688 928.968 295.908L928.968 295.908ZM935.429 290.377C935.354 290.439 934.873 290.836 934.161 291.434C933.499 291.124 932.868 290.784 932.271 290.415C933.682 288.86 934.892 287.502 935.804 286.469C936.761 287.016 937.79 287.517 938.937 287.933C937.724 288.64 936.542 289.44 935.429 290.377L935.429 290.377ZM940.886 286.898C939.392 286.482 938.045 285.931 936.857 285.273L936.89 285.235C937.561 284.468 938.676 283.185 940.05 281.577C941.424 282.464 942.947 283.228 944.637 283.807C944.058 284.541 943.458 285.283 942.837 286.031C942.188 286.294 941.537 286.583 940.886 286.898L940.886 286.898ZM956.697 263.512C956.047 263.284 955.439 263.013 954.876 262.686C956.008 260.995 956.948 259.454 957.563 258.187C957.72 259.495 957.433 261.299 956.696 263.512L956.697 263.512ZM954.804 255.767C953.644 256.533 952.268 257.642 950.768 258.962C950.312 258.35 949.924 257.771 949.664 257.318C951.747 256.305 953.491 255.785 954.804 255.767L954.804 255.767ZM931.181 271.902C931.799 273.012 932.742 274.506 934.03 276.107C932.572 277.73 931.411 279.047 930.723 279.832C929.615 278.33 928.913 276.968 928.535 276.123C928.766 275.428 928.97 274.738 929.146 274.049C929.83 273.315 930.509 272.597 931.18 271.902L931.181 271.902ZM908.573 295.312C908.599 295.26 911.019 289.932 915.634 284.346C915.932 284.005 922.961 275.967 924.674 273.107C924.752 273.018 926.01 271.557 927.636 268.142C927.255 271.908 926.235 276.634 923.692 280.628C923.634 280.719 917.913 289.868 914.934 293.485C914.716 293.768 910.275 299.573 909.011 306.331C907.686 304.021 906.45 300.156 908.574 295.312L908.573 295.312ZM944.519 290.193C941.761 292.421 934.718 300.451 934.449 300.763C929.495 306.102 924.535 309.206 924.496 309.231C919.967 311.981 915.973 311.267 913.506 310.262C920.038 308.115 925.208 302.944 925.478 302.665C928.65 299.262 936.959 292.38 937.054 292.301C940.67 289.254 945.218 287.62 948.898 286.747C945.763 288.786 944.509 290.184 944.519 290.193L944.519 290.193Z" fill="white"/>
<path d="M1346.34 192.886C1350.56 186.465 1350.15 178.203 1346.87 171.549C1339.26 156.09 1318.24 152.227 1303.33 157.599C1299.17 159.099 1295.29 161.275 1291.15 162.829C1287.18 164.321 1282.69 164.187 1279.08 166.573C1278.43 167.002 1277.87 167.494 1277.37 168.032C1277.11 168.182 1276.87 168.401 1276.67 168.72C1274.21 172.733 1271.83 176.794 1269.37 180.814C1267.15 184.467 1270.04 189.174 1272.26 192.32C1278.11 200.58 1289.15 203.068 1298.27 205.853C1307.98 208.817 1318.5 211.105 1328.7 210.442C1330.57 210.321 1332.49 210.012 1334.25 209.338C1336.96 208.302 1337.53 206.804 1338.98 204.343C1340.93 201.028 1343.05 197.812 1345.1 194.558C1345.53 194.033 1345.95 193.483 1346.34 192.887L1346.34 192.886ZM1287.09 168.043C1294.05 166.768 1300.03 162.782 1306.7 160.639C1320.23 156.292 1337.36 161.257 1343.88 174.492C1346.4 179.6 1345.87 185.854 1342.98 190.677C1342.81 190.814 1342.65 190.979 1342.52 191.197C1342.21 191.687 1341.9 192.174 1341.59 192.663C1341.51 192.767 1341.43 192.877 1341.34 192.98C1336.36 198.785 1327.57 197.698 1320.76 197.213C1312.96 196.657 1305.31 194.937 1297.99 192.219C1292.29 190.101 1284.51 187.003 1280.51 182.129C1278.96 179.584 1278.3 176.834 1278.86 173.852C1279.65 169.638 1283.47 168.707 1287.09 168.044L1287.09 168.043ZM1334.33 204.388C1333.16 206.403 1329.64 206.404 1327.6 206.536C1319.01 207.093 1310.12 205.049 1301.91 202.766C1293.49 200.425 1283.26 198.144 1276.94 191.764C1275.45 190.257 1274.4 188.444 1273.49 186.548C1272.24 183.928 1272.66 183.079 1274.07 180.751C1274.4 180.206 1274.73 179.658 1275.06 179.112C1275.46 180.967 1276.18 182.735 1277.12 184.223C1277.17 184.304 1277.23 184.37 1277.28 184.439C1277.33 184.507 1277.36 184.576 1277.42 184.643C1282.15 190.624 1291.27 193.961 1298.19 196.534C1307.52 199.998 1317.55 201.263 1327.44 201.514C1330.78 201.597 1333.92 201.251 1336.77 200.302C1335.94 201.651 1335.13 203.018 1334.33 204.388L1334.33 204.388Z" fill="white"/>
<path d="M1289.85 184.281C1291.25 186.417 1294.77 184.555 1293.37 182.407C1291.6 179.703 1290.29 176.817 1289.47 173.689C1288.82 171.205 1284.94 172.12 1285.59 174.609C1286.49 178.051 1287.91 181.304 1289.85 184.281Z" fill="white"/>
<path d="M1294.01 171.38C1296.75 177.385 1299.78 183.23 1303.11 188.921C1304.41 191.136 1307.93 189.264 1306.63 187.047C1303.29 181.355 1300.26 175.511 1297.53 169.506C1296.46 167.161 1292.96 169.055 1294.01 171.38Z" fill="white"/>
<path d="M1303.88 168.068C1306.91 175.524 1310.42 182.744 1314.41 189.739C1315.68 191.971 1319.2 190.097 1317.92 187.865C1313.94 180.871 1310.43 173.65 1307.39 166.195C1306.42 163.811 1302.92 165.716 1303.88 168.068Z" fill="white"/>
<path d="M1313.01 166.174C1318.28 173.871 1322.26 181.708 1325.98 190.243C1327.02 192.604 1330.52 190.705 1329.5 188.37C1325.77 179.835 1321.79 171.998 1316.52 164.301C1315.09 162.201 1311.56 164.058 1313.01 166.174Z" fill="white"/>
<path d="M1324.97 166.569C1329.25 172.865 1332.75 179.583 1335.37 186.733C1336.24 189.118 1340.13 188.224 1339.25 185.812C1336.51 178.327 1332.97 171.292 1328.49 164.695C1327.06 162.589 1323.53 164.447 1324.97 166.569L1324.97 166.569Z" fill="white"/>
<path d="M1212.84 279.484C1210.65 277.146 1208.12 275.151 1205.34 273.565C1202.61 271.892 1199.64 270.64 1196.53 269.85C1195.15 269.462 1193.7 269.418 1192.3 269.724L1192.29 269.725L1187.99 270.83L1195.19 256.878C1195.83 256.072 1196.05 255.008 1195.78 254.013C1195.41 252.872 1194.14 251.507 1190.12 251.487C1186.92 251.563 1183.75 252.121 1180.71 253.141C1177.64 254.065 1174.73 255.445 1172.07 257.235C1170.86 258.006 1169.86 259.064 1169.16 260.314L1169.15 260.321L1159.99 278.044C1159.95 278.048 1159.9 278.055 1159.86 278.063L1143.92 282.162C1143.6 282.244 1143.33 282.448 1143.16 282.731C1141.44 285.658 1146.14 290.771 1151.6 294.276L1146.22 304.681C1146.07 304.973 1146.04 305.313 1146.14 305.626C1147.22 309.013 1154.88 308.803 1161.66 306.643L1161.66 306.643C1163.25 306.142 1164.8 305.536 1166.31 304.829C1169.7 303.221 1172.22 301.297 1173.25 299.427L1174.74 296.523L1212.18 286.855C1212.63 286.802 1213.07 286.679 1213.48 286.491C1214 286.257 1214.43 285.872 1214.72 285.385C1215.33 284.354 1215.5 282.493 1212.84 279.484L1212.84 279.484ZM1182.57 281.349L1193.82 278.456C1195.02 279.557 1196.3 280.568 1197.65 281.478L1180.19 285.968L1182.57 281.349ZM1190.11 272.844C1190.35 274.172 1190.96 275.404 1191.87 276.398L1184.09 278.4L1186.47 273.779L1190.11 272.844ZM1173.52 259.248C1174.62 258.476 1175.79 257.803 1177.01 257.237C1178.46 256.56 1179.94 255.98 1181.46 255.501C1184.25 254.559 1187.17 254.041 1190.11 253.963C1192.65 253.976 1193.36 254.598 1193.42 254.764L1193.42 254.765C1193.47 254.93 1193.25 255.853 1191.18 257.331C1188.74 258.97 1186.06 260.233 1183.24 261.078C1176.05 263.367 1171.54 262.623 1171.28 261.814C1171.23 261.648 1171.46 260.726 1173.52 259.248L1173.52 259.248ZM1160.71 304.341C1159.09 304.852 1157.43 305.235 1155.75 305.486L1176.68 265C1178.3 264.834 1179.91 264.549 1181.49 264.147L1160.71 304.341ZM1145.27 284.373L1158.47 280.978L1156.08 285.601L1147.53 287.801C1146.51 286.853 1145.74 285.678 1145.27 284.373L1145.27 284.373ZM1149.66 289.81L1154.56 288.551L1152.74 292.067L1152.74 292.068C1151.67 291.377 1150.64 290.623 1149.66 289.81L1149.66 289.81ZM1148.76 305.159L1170.03 264.019C1171.18 264.718 1172.51 265.083 1173.85 265.074L1152.83 305.747C1150.77 305.798 1149.33 305.525 1148.76 305.159L1148.76 305.159ZM1171.06 298.264C1170.33 299.598 1167.97 301.458 1164.15 303.081L1184.74 263.262C1184.75 263.228 1184.76 263.193 1184.78 263.159L1184.78 263.16C1186.13 262.708 1187.45 262.181 1188.74 261.581C1189.33 261.303 1189.88 261.013 1190.42 260.718L1171.06 298.264ZM1178.66 288.918L1200.47 283.31C1200.5 283.302 1200.53 283.288 1200.56 283.279L1200.56 283.278C1202.34 284.298 1204.22 285.159 1206.15 285.853L1176.26 293.572L1178.66 288.918ZM1212.59 284.124L1212.59 284.125C1212.5 284.275 1211.67 284.722 1209.19 284.167L1209.19 284.167C1206.34 283.434 1203.61 282.279 1201.1 280.737C1198.54 279.283 1196.21 277.454 1194.2 275.31C1192.52 273.408 1192.5 272.459 1192.59 272.309C1192.64 272.252 1192.7 272.208 1192.77 272.181C1193.13 272.011 1194.06 271.834 1195.99 272.267L1195.99 272.267C1198.84 273 1201.57 274.156 1204.08 275.698C1206.64 277.151 1208.97 278.98 1210.99 281.124C1212.67 283.027 1212.68 283.974 1212.59 284.124L1212.59 284.124Z" fill="white"/>
<path d="M1228.61 62.7844L1228.42 62.5971L1228.33 62.5038C1222.53 56.8913 1212.43 57.0787 1205.69 57.1719H1204.38C1203.45 57.1719 1202.51 56.7981 1201.76 56.143C1201.11 55.4886 1200.73 54.553 1200.73 53.618V52.3085C1200.83 45.5739 1200.92 35.3785 1195.4 29.6728L1195.21 29.4862L1195.12 29.3929L1195.03 29.2996C1192.22 26.6805 1186.61 24.6227 1184.08 27.1484C1183.24 27.9901 1183.43 29.2062 1183.52 29.5802C1183.52 29.954 1183.34 30.1413 1183.24 30.2352C1183.06 30.4225 1182.68 30.5158 1182.4 30.4225C1179.59 29.4869 1177.44 29.6741 1176.32 30.8903C1175.39 31.732 1175.57 33.2287 1175.76 34.1644C1175.85 34.5383 1175.57 34.8195 1175.48 34.9128C1175.39 35.0061 1175.11 35.1933 1174.82 35.1C1172.3 34.445 1170.62 34.6322 1169.59 35.6612C1168.56 36.6901 1168.37 38.3734 1169.12 40.899C1169.21 41.2729 1169.03 41.4601 1168.93 41.5541C1168.84 41.6474 1168.56 41.8347 1168.18 41.8347C1167.15 41.6474 1165.75 41.5541 1164.91 42.3958C1163.69 43.6119 1163.6 45.6699 1164.44 48.4753C1164.53 48.7559 1164.44 49.0364 1164.25 49.317C1164.16 49.4103 1163.97 49.5975 1163.6 49.5975C1163.23 49.5042 1161.92 49.4103 1161.17 50.1586C1158.55 52.7777 1160.79 58.39 1163.41 61.1956L1163.51 61.2889L1163.6 61.3822L1163.69 61.4755C1169.49 67.088 1179.59 66.9006 1186.33 66.8074H1187.64C1188.67 66.8074 1189.51 67.1813 1190.26 67.8363C1190.91 68.4914 1191.38 69.4264 1191.29 70.4553V71.7648C1191.19 78.4994 1191.1 88.6949 1196.62 94.4006L1196.71 94.4939L1197.55 93.7455L1196.8 94.5872L1197.65 93.7455L1196.9 94.5872L1196.99 94.6805C1198.86 96.4579 1202.14 97.9546 1204.75 97.9546C1205.97 97.9546 1207.09 97.5807 1207.93 96.8324C1208.78 95.9907 1208.59 94.7746 1208.5 94.4006C1208.5 94.0267 1208.68 93.8395 1208.78 93.7455C1208.96 93.5583 1209.34 93.465 1209.62 93.5583C1212.42 94.4939 1214.57 94.3066 1215.7 93.0904C1216.54 92.1548 1216.45 90.752 1216.26 89.8163C1216.16 89.4425 1216.45 89.1613 1216.54 89.068C1216.63 88.9747 1216.91 88.7874 1217.19 88.8807C1219.72 89.5358 1221.4 89.3485 1222.43 88.3196C1223.46 87.2907 1223.65 85.6074 1222.9 83.0817C1222.81 82.7079 1222.99 82.5206 1223.09 82.4267C1223.18 82.3334 1223.46 82.1461 1223.84 82.1461C1224.86 82.3334 1226.27 82.4267 1227.11 81.585C1228.33 80.3688 1228.42 78.3109 1227.58 75.5055C1227.48 75.2249 1227.58 74.9443 1227.76 74.6638C1227.86 74.5705 1228.04 74.3832 1228.42 74.3832C1228.79 74.4765 1230.1 74.5705 1230.85 73.8221C1233.38 71.3898 1231.32 65.7773 1228.7 62.9717C1228.61 62.8778 1228.61 62.8778 1228.61 62.7845L1228.61 62.7844ZM1229.26 72.2314H1228.7C1227.67 72.1381 1226.64 72.5119 1225.99 73.3536C1225.33 74.1953 1225.05 75.3182 1225.43 76.3471C1225.99 78.1245 1226.08 79.6212 1225.61 80.0882C1225.61 80.0882 1225.33 80.2755 1224.31 80.0882C1223.28 79.901 1222.15 80.2755 1221.5 81.0239C1220.75 81.7722 1220.56 82.8944 1220.84 83.8301C1221.5 86.1685 1221.03 86.7296 1220.94 86.8236C1220.84 86.9169 1220.28 87.3847 1217.94 86.7303C1216.91 86.4497 1215.89 86.7303 1215.14 87.4787C1214.39 88.2271 1214.02 89.256 1214.2 90.2849C1214.39 91.3139 1214.2 91.5944 1214.3 91.5944C1213.83 92.0622 1212.33 92.0622 1210.55 91.5011C1209.53 91.1273 1208.4 91.4078 1207.56 92.0622C1206.72 92.7173 1206.34 93.7455 1206.44 94.7744V95.3356C1205.13 96.4578 1201.01 95.2423 1198.67 92.9972L1198.58 92.9039C1193.62 87.8532 1193.72 78.2183 1193.81 71.8582V70.5487C1193.81 68.9587 1193.25 67.462 1192.03 66.2457C1190.91 65.1235 1189.42 64.4684 1187.83 64.4684H1187.73H1186.42C1180.06 64.5617 1170.43 64.6556 1165.38 59.6982L1165.28 59.6049C1163.04 57.2665 1161.82 53.0575 1162.94 51.8414H1163.51C1164.53 51.9347 1165.56 51.5608 1166.22 50.7191C1166.87 49.8775 1167.15 48.7545 1166.78 47.7256C1166.22 45.9483 1166.12 44.4515 1166.59 43.9845C1166.59 43.9845 1166.87 43.7973 1167.9 43.9845C1168.93 44.1718 1170.05 43.7973 1170.71 43.0489C1171.46 42.3005 1171.64 41.1783 1171.36 40.2426C1170.71 37.9042 1171.18 37.3432 1171.27 37.2491C1171.36 37.1558 1171.92 36.688 1174.26 37.3424C1175.29 37.623 1176.32 37.3424 1177.07 36.5941C1177.82 35.8457 1178.19 34.8167 1178.01 33.7878C1177.82 32.7589 1178.01 32.4783 1177.91 32.4783C1178.38 32.0105 1179.88 32.0105 1181.65 32.5716C1182.68 32.9455 1183.8 32.6649 1184.65 32.0105C1185.49 31.3555 1185.86 30.3272 1185.77 29.2983V28.7372C1187.08 27.615 1191.19 28.8305 1193.53 31.0756V31.1689C1198.49 36.2195 1198.4 45.8544 1198.3 52.2146V53.524C1198.3 55.1141 1198.86 56.6107 1200.08 57.827C1201.2 58.9493 1202.7 59.6044 1204.38 59.6044H1205.69C1212.05 59.5111 1221.69 59.4171 1226.74 64.3746L1226.83 64.4679C1229.17 66.8063 1230.38 70.922 1229.26 72.2314H1229.26Z" fill="white"/>
<path d="M1207.28 65.1228C1205.88 63.72 1204.01 62.7844 1202.04 62.4106L1198.96 61.8495C1197.55 61.5689 1196.52 60.54 1196.34 59.1372L1195.96 56.6116C1195.59 54.4604 1194.65 52.4958 1193.16 50.9991L1189.32 47.1639C1188.85 46.6961 1188.11 46.6961 1187.73 47.1639C1187.26 47.6318 1187.26 48.3801 1187.73 48.754L1191.57 52.5891C1192.69 53.7114 1193.44 55.2081 1193.72 56.8921L1194.09 59.4178C1194.09 59.6983 1194.19 59.8856 1194.28 60.1662C1194.09 60.0728 1193.81 59.9789 1193.53 59.9789L1190.35 59.4171C1188.76 59.1366 1187.36 58.3882 1186.33 57.266L1182.77 53.7114C1182.31 53.2436 1181.56 53.2436 1181.18 53.7114C1180.72 54.1792 1180.72 54.9276 1181.18 55.3014L1184.74 58.856C1186.14 60.2588 1188.01 61.1944 1189.98 61.5682L1193.06 62.1293C1194.47 62.4099 1195.5 63.4388 1195.68 64.8415L1196.06 67.3672C1196.43 69.5184 1197.37 71.483 1198.86 72.9797L1202.7 76.8149C1202.89 77.0021 1203.26 77.1887 1203.54 77.1887C1203.82 77.1887 1204.1 77.0954 1204.38 76.8149C1204.85 76.347 1204.85 75.5987 1204.38 75.2248L1200.55 71.3897C1199.42 70.2674 1198.68 68.7707 1198.39 67.0867L1198.02 64.561C1198.02 64.2805 1197.93 64.0932 1197.83 63.8126C1198.02 63.9059 1198.3 63.9999 1198.58 63.9999L1201.67 64.561C1203.26 64.8416 1204.66 65.59 1205.69 66.7122L1209.25 70.2667C1209.43 70.454 1209.81 70.6406 1210.09 70.6406C1210.37 70.6406 1210.65 70.5473 1210.93 70.2667C1211.4 69.7989 1211.4 69.0506 1210.93 68.6767L1207.28 65.1228Z" fill="white"/>
</svg>
