<svg width="40" height="40" viewBox="0 0 40 40" fill="none" xmlns="http://www.w3.org/2000/svg">
<path d="M19.9998 39.8332C30.9535 39.8332 39.8332 30.9535 39.8332 19.9998C39.8332 9.04619 30.9535 0.166504 19.9998 0.166504C9.04619 0.166504 0.166504 9.04619 0.166504 19.9998C0.166504 30.9535 9.04619 39.8332 19.9998 39.8332Z" fill="#B11226"/>
<path d="M19.9999 8.2334C16.8066 8.2334 16.3999 8.24673 15.1466 8.30673C13.8932 8.36673 13.0399 8.56007 12.2932 8.8534C11.5199 9.1534 10.8599 9.5534 10.2066 10.2134C9.55323 10.8667 9.15323 11.5267 8.84656 12.3001C8.55323 13.0467 8.35323 13.9067 8.2999 15.1534C8.24656 16.4067 8.22656 16.8067 8.22656 20.0067C8.22656 23.2001 8.2399 23.6001 8.2999 24.8601C8.3599 26.1134 8.55323 26.9667 8.84656 27.7134C9.14656 28.4867 9.54656 29.1467 10.2066 29.8001C10.8599 30.4534 11.5199 30.8601 12.2932 31.1601C13.0399 31.4534 13.8999 31.6467 15.1466 31.7067C16.3999 31.7667 16.7999 31.7801 19.9999 31.7801C23.1932 31.7801 23.5932 31.7667 24.8532 31.7067C26.1066 31.6467 26.9599 31.4534 27.7132 31.1601C28.4866 30.8601 29.1399 30.4534 29.7932 29.8001C30.4466 29.1467 30.8466 28.4867 31.1532 27.7134C31.4399 26.9667 31.6399 26.1134 31.6999 24.8601C31.7532 23.6067 31.7732 23.2067 31.7732 20.0067C31.7732 16.8134 31.7599 16.4134 31.6999 15.1534C31.6399 13.9001 31.4399 13.0467 31.1532 12.3001C30.8532 11.5267 30.4466 10.8667 29.7932 10.2134C29.1399 9.56006 28.4866 9.16007 27.7066 8.8534C26.9532 8.56007 26.0999 8.36673 24.8466 8.30673C23.5932 8.24673 23.1932 8.2334 19.9999 8.2334ZM18.9466 10.3534C19.2599 10.3534 19.6066 10.3534 19.9999 10.3534C23.1399 10.3534 23.5132 10.3667 24.7532 10.4201C25.8999 10.4734 26.5199 10.6667 26.9399 10.8267C27.4866 11.0401 27.8799 11.2934 28.2932 11.7067C28.7066 12.1201 28.9599 12.5134 29.1732 13.0601C29.3332 13.4734 29.5266 14.1001 29.5799 15.2467C29.6332 16.4867 29.6466 16.8601 29.6466 20.0001C29.6466 23.1401 29.6332 23.5134 29.5799 24.7534C29.5266 25.9001 29.3332 26.5201 29.1732 26.9401C28.9599 27.4867 28.7066 27.8801 28.2932 28.2934C27.8799 28.7067 27.4932 28.9601 26.9399 29.1734C26.5266 29.3334 25.8999 29.5267 24.7532 29.5801C23.5132 29.6334 23.1399 29.6467 19.9999 29.6467C16.8599 29.6467 16.4866 29.6334 15.2466 29.5801C14.0999 29.5267 13.4799 29.3334 13.0599 29.1734C12.5132 28.9601 12.1199 28.7067 11.7066 28.2934C11.2932 27.8801 11.0399 27.4867 10.8266 26.9401C10.6666 26.5267 10.4732 25.9001 10.4199 24.7534C10.3666 23.5134 10.3532 23.1401 10.3532 20.0001C10.3532 16.8601 10.3666 16.4867 10.4199 15.2467C10.4732 14.1001 10.6666 13.4801 10.8266 13.0601C11.0399 12.5134 11.2932 12.1201 11.7066 11.7067C12.1199 11.2934 12.5132 11.0401 13.0599 10.8267C13.4732 10.6667 14.0999 10.4734 15.2466 10.4201C16.3332 10.3667 16.7532 10.3534 18.9466 10.3534ZM26.2799 12.3067C25.4999 12.3067 24.8666 12.9401 24.8666 13.7201C24.8666 14.5001 25.4999 15.1334 26.2799 15.1334C27.0599 15.1334 27.6932 14.5001 27.6932 13.7201C27.6932 12.9401 27.0599 12.3067 26.2799 12.3067ZM19.9999 13.9601C16.6599 13.9601 13.9599 16.6667 13.9599 20.0001C13.9599 23.3401 16.6666 26.0401 19.9999 26.0401C23.3399 26.0401 26.0399 23.3334 26.0399 20.0001C26.0399 16.6601 23.3399 13.9601 19.9999 13.9601ZM19.9999 16.0801C22.1666 16.0801 23.9199 17.8334 23.9199 20.0001C23.9199 22.1667 22.1666 23.9201 19.9999 23.9201C17.8332 23.9201 16.0799 22.1667 16.0799 20.0001C16.0799 17.8334 17.8332 16.0801 19.9999 16.0801Z" fill="white"/>
</svg>
