<svg width="24" height="24" viewBox="0 0 24 24" fill="none" xmlns="http://www.w3.org/2000/svg">
<path d="M11.9999 0.233398C8.80656 0.233398 8.39989 0.246732 7.14656 0.306732C5.89323 0.366732 5.0399 0.560065 4.29323 0.853399C3.5199 1.1534 2.8599 1.5534 2.20656 2.2134C1.55323 2.86673 1.15323 3.52673 0.846562 4.30007C0.553229 5.04673 0.353229 5.90673 0.299896 7.1534C0.246562 8.40673 0.226562 8.80673 0.226562 12.0067C0.226562 15.2001 0.239896 15.6001 0.299896 16.8601C0.359896 18.1134 0.553229 18.9667 0.846562 19.7134C1.14656 20.4867 1.54656 21.1467 2.20656 21.8001C2.8599 22.4534 3.5199 22.8601 4.29323 23.1601C5.0399 23.4534 5.8999 23.6467 7.14656 23.7067C8.39989 23.7667 8.7999 23.7801 11.9999 23.7801C15.1932 23.7801 15.5932 23.7667 16.8532 23.7067C18.1066 23.6467 18.9599 23.4534 19.7132 23.1601C20.4866 22.8601 21.1399 22.4534 21.7932 21.8001C22.4466 21.1467 22.8466 20.4867 23.1532 19.7134C23.4399 18.9667 23.6399 18.1134 23.6999 16.8601C23.7532 15.6067 23.7732 15.2067 23.7732 12.0067C23.7732 8.8134 23.7599 8.4134 23.6999 7.1534C23.6399 5.90006 23.4399 5.04673 23.1532 4.30007C22.8532 3.52673 22.4466 2.86673 21.7932 2.2134C21.1399 1.56006 20.4866 1.16007 19.7066 0.853399C18.9532 0.560065 18.0999 0.366732 16.8466 0.306732C15.5932 0.246732 15.1932 0.233398 11.9999 0.233398ZM10.9466 2.3534C11.2599 2.3534 11.6066 2.3534 11.9999 2.3534C15.1399 2.3534 15.5132 2.36673 16.7532 2.42007C17.8999 2.4734 18.5199 2.66673 18.9399 2.82673C19.4866 3.04006 19.8799 3.2934 20.2932 3.70673C20.7066 4.12007 20.9599 4.5134 21.1732 5.06006C21.3332 5.4734 21.5266 6.10006 21.5799 7.24673C21.6332 8.48673 21.6466 8.86006 21.6466 12.0001C21.6466 15.1401 21.6332 15.5134 21.5799 16.7534C21.5266 17.9001 21.3332 18.5201 21.1732 18.9401C20.9599 19.4867 20.7066 19.8801 20.2932 20.2934C19.8799 20.7067 19.4932 20.9601 18.9399 21.1734C18.5266 21.3334 17.8999 21.5267 16.7532 21.5801C15.5132 21.6334 15.1399 21.6467 11.9999 21.6467C8.8599 21.6467 8.48656 21.6334 7.24656 21.5801C6.0999 21.5267 5.4799 21.3334 5.0599 21.1734C4.51323 20.9601 4.1199 20.7067 3.70656 20.2934C3.29323 19.8801 3.0399 19.4867 2.82656 18.9401C2.66656 18.5267 2.47323 17.9001 2.4199 16.7534C2.36656 15.5134 2.35323 15.1401 2.35323 12.0001C2.35323 8.86006 2.36656 8.48673 2.4199 7.24673C2.47323 6.10006 2.66656 5.48006 2.82656 5.06006C3.0399 4.5134 3.29323 4.12007 3.70656 3.70673C4.1199 3.2934 4.51323 3.04006 5.0599 2.82673C5.47323 2.66673 6.0999 2.4734 7.24656 2.42007C8.33323 2.36673 8.75323 2.3534 10.9466 2.3534ZM18.2799 4.30673C17.4999 4.30673 16.8666 4.94006 16.8666 5.72007C16.8666 6.50006 17.4999 7.1334 18.2799 7.1334C19.0599 7.1334 19.6932 6.50006 19.6932 5.72007C19.6932 4.94006 19.0599 4.30673 18.2799 4.30673ZM11.9999 5.96006C8.6599 5.96006 5.9599 8.66673 5.9599 12.0001C5.9599 15.3401 8.66656 18.0401 11.9999 18.0401C15.3399 18.0401 18.0399 15.3334 18.0399 12.0001C18.0399 8.66006 15.3399 5.96006 11.9999 5.96006ZM11.9999 8.08006C14.1666 8.08006 15.9199 9.8334 15.9199 12.0001C15.9199 14.1667 14.1666 15.9201 11.9999 15.9201C9.83323 15.9201 8.0799 14.1667 8.0799 12.0001C8.0799 9.8334 9.83323 8.08006 11.9999 8.08006Z" fill="white"/>
</svg>
