<svg width="72" height="79" viewBox="0 0 72 79" fill="none" xmlns="http://www.w3.org/2000/svg">
<path d="M0.191009 77.3898C0.266357 78.0503 0.828435 78.553 1.49502 78.553C1.65616 78.553 18.0202 78.1553 50.4554 43.9228C50.7018 43.6632 50.8299 43.3151 50.8134 42.9636C50.8002 42.6089 50.6391 42.274 50.3767 42.0375L41.9729 34.5473L42.0813 33.9395C44.8603 33.637 52.0255 32.0768 54.8607 24.0244C56.2011 20.2201 60.4816 16.1464 64.7197 16.1464C65.6101 16.1464 66.4577 16.3307 67.2491 16.6887C67.7749 16.9285 68.3859 16.8004 68.7704 16.3736C72.5416 12.2048 72.5026 7.60185 71.2079 4.68147C69.9231 1.79346 67.2623 0 64.2561 0C62.3933 0 59.486 0.679777 56.2994 3.87358C54.6473 5.32448 15.6319 39.6386 5.4777 54.2152C2.11338 59.0473 -0.783914 69.0339 0.191802 77.3888L0.191009 77.3898ZM58.1004 5.7908C60.1667 3.72124 62.2989 2.62725 64.2602 2.62725C66.2446 2.62725 67.9429 3.79047 68.8102 5.74518C69.7006 7.75589 69.7495 10.8963 67.3939 13.9257C66.5398 13.6529 65.646 13.5149 64.7231 13.5149C59.1248 13.5149 54.0529 18.413 52.387 23.1507C49.9066 30.1976 43.4251 31.2095 41.5094 31.3537L36.1675 25.7885C47.584 15.039 57.8641 5.99819 58.1007 5.79122L58.1004 5.7908ZM7.63207 55.717C12.3003 49.0182 23.5561 37.7402 34.2524 27.5959L39.5581 33.1215L39.2556 34.8033C39.177 35.2532 39.331 35.7103 39.6731 36.0155L47.6137 43.0922C21.8382 70.0349 6.82368 74.8839 2.67724 75.7414C2.20096 68.3133 4.72427 59.8934 7.63157 55.7188L7.63207 55.717Z" fill="black"/>
<path d="M48.0506 23.7424C48.0506 25.0612 46.9814 26.131 45.6625 26.131C44.3431 26.131 43.2739 25.0612 43.2739 23.7424C43.2739 22.4235 44.3431 21.3538 45.6625 21.3538C46.9814 21.3538 48.0506 22.4235 48.0506 23.7424Z" fill="black"/>
<path d="M66.4046 8.28875C66.4046 9.60761 65.3354 10.6768 64.0165 10.6768C62.6971 10.6768 61.6279 9.60761 61.6279 8.28875C61.6279 6.96934 62.6971 5.90015 64.0165 5.90015C65.3354 5.90015 66.4046 6.96932 66.4046 8.28875Z" fill="black"/>
</svg>
