<svg width="128" height="60" viewBox="0 0 128 60" fill="none" xmlns="http://www.w3.org/2000/svg">
<path d="M60.936 17.36C60.936 16.32 61.112 15.304 61.464 14.312C61.832 13.304 62.36 12.392 63.048 11.576C63.752 10.744 64.608 10.088 65.616 9.608C66.624 9.112 67.768 8.864 69.048 8.864C70.568 8.864 71.872 9.216 72.96 9.92C74.048 10.608 74.856 11.496 75.384 12.584L73.68 13.688C73.344 12.968 72.912 12.4 72.384 11.984C71.872 11.552 71.312 11.248 70.704 11.072C70.112 10.896 69.528 10.808 68.952 10.808C68.008 10.808 67.168 11 66.432 11.384C65.712 11.768 65.104 12.28 64.608 12.92C64.112 13.56 63.736 14.28 63.48 15.08C63.24 15.864 63.12 16.656 63.12 17.456C63.12 18.336 63.264 19.184 63.552 20C63.856 20.816 64.272 21.536 64.8 22.16C65.328 22.784 65.952 23.28 66.672 23.648C67.392 24.016 68.176 24.2 69.024 24.2C69.616 24.2 70.224 24.096 70.848 23.888C71.472 23.68 72.056 23.36 72.6 22.928C73.144 22.48 73.576 21.904 73.896 21.2L75.696 22.184C75.344 23.032 74.8 23.752 74.064 24.344C73.328 24.936 72.504 25.384 71.592 25.688C70.696 25.992 69.808 26.144 68.928 26.144C67.76 26.144 66.688 25.896 65.712 25.4C64.736 24.888 63.888 24.216 63.168 23.384C62.464 22.536 61.912 21.592 61.512 20.552C61.128 19.496 60.936 18.432 60.936 17.36ZM85.1239 26.12C83.9239 26.12 82.8359 25.88 81.8599 25.4C80.8839 24.92 80.0359 24.272 79.3159 23.456C78.6119 22.624 78.0679 21.696 77.6839 20.672C77.2999 19.632 77.1079 18.568 77.1079 17.48C77.1079 16.344 77.3079 15.264 77.7079 14.24C78.1239 13.2 78.6919 12.28 79.4119 11.48C80.1479 10.664 81.0039 10.024 81.9799 9.56C82.9559 9.08 84.0199 8.84 85.1719 8.84C86.3719 8.84 87.4599 9.088 88.4359 9.584C89.4119 10.08 90.2519 10.744 90.9559 11.576C91.6599 12.408 92.2039 13.336 92.5879 14.36C92.9719 15.384 93.1639 16.432 93.1639 17.504C93.1639 18.64 92.9639 19.728 92.5639 20.768C92.1639 21.792 91.5959 22.712 90.8599 23.528C90.1399 24.328 89.2919 24.96 88.3159 25.424C87.3399 25.888 86.2759 26.12 85.1239 26.12ZM79.2919 17.48C79.2919 18.344 79.4279 19.184 79.6999 20C79.9879 20.8 80.3879 21.512 80.8999 22.136C81.4119 22.76 82.0279 23.256 82.7479 23.624C83.4679 23.992 84.2679 24.176 85.1479 24.176C86.0599 24.176 86.8759 23.984 87.5959 23.6C88.3159 23.216 88.9239 22.704 89.4199 22.064C89.9319 21.424 90.3159 20.704 90.5719 19.904C90.8439 19.104 90.9799 18.296 90.9799 17.48C90.9799 16.616 90.8359 15.784 90.5479 14.984C90.2759 14.184 89.8759 13.472 89.3479 12.848C88.8359 12.208 88.2199 11.712 87.4999 11.36C86.7959 10.992 86.0119 10.808 85.1479 10.808C84.2359 10.808 83.4199 11 82.6999 11.384C81.9799 11.752 81.3639 12.256 80.8519 12.896C80.3559 13.536 79.9719 14.256 79.6999 15.056C79.4279 15.84 79.2919 16.648 79.2919 17.48ZM103.077 26.12C101.877 26.12 100.789 25.88 99.813 25.4C98.837 24.92 97.989 24.272 97.269 23.456C96.565 22.624 96.021 21.696 95.637 20.672C95.253 19.632 95.061 18.568 95.061 17.48C95.061 16.344 95.261 15.264 95.661 14.24C96.077 13.2 96.645 12.28 97.365 11.48C98.101 10.664 98.957 10.024 99.933 9.56C100.909 9.08 101.973 8.84 103.125 8.84C104.325 8.84 105.413 9.088 106.389 9.584C107.365 10.08 108.205 10.744 108.909 11.576C109.613 12.408 110.157 13.336 110.541 14.36C110.925 15.384 111.117 16.432 111.117 17.504C111.117 18.64 110.917 19.728 110.517 20.768C110.117 21.792 109.549 22.712 108.813 23.528C108.093 24.328 107.245 24.96 106.269 25.424C105.293 25.888 104.229 26.12 103.077 26.12ZM97.245 17.48C97.245 18.344 97.381 19.184 97.653 20C97.941 20.8 98.341 21.512 98.853 22.136C99.365 22.76 99.981 23.256 100.701 23.624C101.421 23.992 102.221 24.176 103.101 24.176C104.013 24.176 104.829 23.984 105.549 23.6C106.269 23.216 106.877 22.704 107.373 22.064C107.885 21.424 108.269 20.704 108.525 19.904C108.797 19.104 108.933 18.296 108.933 17.48C108.933 16.616 108.789 15.784 108.501 14.984C108.229 14.184 107.829 13.472 107.301 12.848C106.789 12.208 106.173 11.712 105.453 11.36C104.749 10.992 103.965 10.808 103.101 10.808C102.189 10.808 101.373 11 100.653 11.384C99.933 11.752 99.317 12.256 98.805 12.896C98.309 13.536 97.925 14.256 97.653 15.056C97.381 15.84 97.245 16.648 97.245 17.48ZM114.118 26V8.984H116.278V18.392L125.062 8.96H127.39L120.55 16.472L127.774 26H125.35L119.182 17.768L116.278 20.792V26H114.118ZM75.12 45.608C75.12 46.488 74.896 47.256 74.448 47.912C74 48.568 73.392 49.08 72.624 49.448C71.872 49.816 71.04 50 70.128 50H62.04V32.96H70.512C71.312 32.96 72 33.176 72.576 33.608C73.168 34.024 73.616 34.568 73.92 35.24C74.24 35.896 74.4 36.584 74.4 37.304C74.4 38.136 74.184 38.92 73.752 39.656C73.336 40.376 72.736 40.912 71.952 41.264C72.928 41.552 73.696 42.088 74.256 42.872C74.832 43.64 75.12 44.552 75.12 45.608ZM72.936 45.224C72.936 44.696 72.816 44.208 72.576 43.76C72.352 43.312 72.04 42.952 71.64 42.68C71.256 42.408 70.808 42.272 70.296 42.272H64.2V48.128H70.128C70.656 48.128 71.128 47.992 71.544 47.72C71.976 47.448 72.312 47.096 72.552 46.664C72.808 46.216 72.936 45.736 72.936 45.224ZM64.2 34.832V40.52H69.624C70.136 40.52 70.584 40.392 70.968 40.136C71.368 39.88 71.68 39.536 71.904 39.104C72.144 38.672 72.264 38.2 72.264 37.688C72.264 37.144 72.152 36.664 71.928 36.248C71.72 35.816 71.424 35.472 71.04 35.216C70.672 34.96 70.248 34.832 69.768 34.832H64.2ZM85.0536 50.12C83.8536 50.12 82.7656 49.88 81.7896 49.4C80.8136 48.92 79.9656 48.272 79.2456 47.456C78.5416 46.624 77.9976 45.696 77.6136 44.672C77.2296 43.632 77.0376 42.568 77.0376 41.48C77.0376 40.344 77.2376 39.264 77.6376 38.24C78.0536 37.2 78.6216 36.28 79.3416 35.48C80.0776 34.664 80.9336 34.024 81.9096 33.56C82.8856 33.08 83.9496 32.84 85.1016 32.84C86.3016 32.84 87.3896 33.088 88.3656 33.584C89.3416 34.08 90.1816 34.744 90.8856 35.576C91.5896 36.408 92.1336 37.336 92.5176 38.36C92.9016 39.384 93.0936 40.432 93.0936 41.504C93.0936 42.64 92.8936 43.728 92.4936 44.768C92.0936 45.792 91.5256 46.712 90.7896 47.528C90.0696 48.328 89.2216 48.96 88.2456 49.424C87.2696 49.888 86.2056 50.12 85.0536 50.12ZM79.2216 41.48C79.2216 42.344 79.3576 43.184 79.6296 44C79.9176 44.8 80.3176 45.512 80.8296 46.136C81.3416 46.76 81.9576 47.256 82.6776 47.624C83.3976 47.992 84.1976 48.176 85.0776 48.176C85.9896 48.176 86.8056 47.984 87.5256 47.6C88.2456 47.216 88.8536 46.704 89.3496 46.064C89.8616 45.424 90.2456 44.704 90.5016 43.904C90.7736 43.104 90.9096 42.296 90.9096 41.48C90.9096 40.616 90.7656 39.784 90.4776 38.984C90.2056 38.184 89.8056 37.472 89.2776 36.848C88.7656 36.208 88.1496 35.712 87.4296 35.36C86.7256 34.992 85.9416 34.808 85.0776 34.808C84.1656 34.808 83.3496 35 82.6296 35.384C81.9096 35.752 81.2936 36.256 80.7816 36.896C80.2856 37.536 79.9016 38.256 79.6296 39.056C79.3576 39.84 79.2216 40.648 79.2216 41.48ZM103.007 50.12C101.807 50.12 100.719 49.88 99.7427 49.4C98.7667 48.92 97.9187 48.272 97.1987 47.456C96.4947 46.624 95.9507 45.696 95.5667 44.672C95.1827 43.632 94.9907 42.568 94.9907 41.48C94.9907 40.344 95.1907 39.264 95.5907 38.24C96.0067 37.2 96.5747 36.28 97.2947 35.48C98.0307 34.664 98.8867 34.024 99.8627 33.56C100.839 33.08 101.903 32.84 103.055 32.84C104.255 32.84 105.343 33.088 106.319 33.584C107.295 34.08 108.135 34.744 108.839 35.576C109.543 36.408 110.087 37.336 110.471 38.36C110.855 39.384 111.047 40.432 111.047 41.504C111.047 42.64 110.847 43.728 110.447 44.768C110.047 45.792 109.479 46.712 108.743 47.528C108.023 48.328 107.175 48.96 106.199 49.424C105.223 49.888 104.159 50.12 103.007 50.12ZM97.1747 41.48C97.1747 42.344 97.3107 43.184 97.5827 44C97.8707 44.8 98.2707 45.512 98.7827 46.136C99.2947 46.76 99.9107 47.256 100.631 47.624C101.351 47.992 102.151 48.176 103.031 48.176C103.943 48.176 104.759 47.984 105.479 47.6C106.199 47.216 106.807 46.704 107.303 46.064C107.815 45.424 108.199 44.704 108.455 43.904C108.727 43.104 108.863 42.296 108.863 41.48C108.863 40.616 108.719 39.784 108.431 38.984C108.159 38.184 107.759 37.472 107.231 36.848C106.719 36.208 106.103 35.712 105.383 35.36C104.679 34.992 103.895 34.808 103.031 34.808C102.119 34.808 101.303 35 100.583 35.384C99.8627 35.752 99.2467 36.256 98.7347 36.896C98.2387 37.536 97.8547 38.256 97.5827 39.056C97.3107 39.84 97.1747 40.648 97.1747 41.48ZM114.048 50V32.984H116.208V42.392L124.992 32.96H127.32L120.48 40.472L127.704 50H125.28L119.112 41.768L116.208 44.792V50H114.048Z" fill="white"/>
<path d="M51.0714 0H0.928571C0.415788 0 0 0.419786 0 0.9375V59.0625C0 59.3111 0.0978322 59.5497 0.271939 59.7254C0.446045 59.9012 0.682335 60 0.928571 60H51.0714C51.3177 60 51.554 59.9012 51.7281 59.7254C51.9022 59.5497 52 59.3111 52 59.0625V0.9375C52 0.688896 51.9022 0.450332 51.7281 0.274554C51.554 0.098775 51.3177 0 51.0714 0ZM50.1429 58.125H1.85714V1.875H50.1429V58.125Z" fill="white"/>
<path d="M16.7144 32.3014V42.6563H35.2858V32.3014C37.0003 31.7984 38.4347 30.6051 39.2517 29.0022C40.0688 27.3992 40.1965 25.5271 39.6049 23.8262C39.0134 22.1249 37.7548 20.7446 36.1248 20.0088C34.4949 19.2731 32.6365 19.2467 30.9866 19.936C29.7517 18.4448 27.9252 17.583 26.0001 17.583C24.0751 17.583 22.2485 18.4448 21.0136 19.936C19.3637 19.2467 17.5053 19.2731 15.8754 20.0088C14.2455 20.7446 12.9869 22.1249 12.3953 23.8262C11.8038 25.5271 11.9315 27.3992 12.7485 29.0022C13.5656 30.6051 14.9999 31.7984 16.7144 32.3014H16.7144ZM18.5715 21.3279C19.3704 21.3283 20.1555 21.5363 20.851 21.9326L21.6171 22.3687L22.0814 21.6187V21.6183C22.9345 20.2711 24.4095 19.4562 25.993 19.4562C27.577 19.4562 29.0514 20.271 29.9045 21.6183L30.3688 22.3683L31.1349 21.9322V21.9326C32.3292 21.2479 33.7627 21.132 35.0494 21.6162C36.3362 22.1009 37.3448 23.1355 37.8036 24.4425C38.2625 25.7492 38.1249 27.1944 37.4276 28.3888C36.73 29.5833 35.5448 30.4048 34.1901 30.6325L33.4286 30.7639V40.7809H18.5714V30.7639L17.7962 30.6325C16.2591 30.3609 14.9603 29.3279 14.3385 27.8832C13.7168 26.4385 13.8552 24.7748 14.7075 23.4552C15.5594 22.1357 17.0111 21.3367 18.5714 21.3279L18.5715 21.3279Z" fill="white"/>
<path d="M25.9999 31.1721C28.3213 31.1721 30.1784 29.7282 30.1784 27.8909C30.1784 27.3732 29.7626 26.9534 29.2499 26.9534C28.7371 26.9534 28.3213 27.3732 28.3213 27.8909C28.3213 28.5564 27.3695 29.2971 25.9999 29.2971C24.6302 29.2971 23.6784 28.5564 23.6784 27.8909C23.6784 27.3732 23.2626 26.9534 22.7499 26.9534C22.2371 26.9534 21.8213 27.3732 21.8213 27.8909C21.8213 29.7282 23.6784 31.1721 25.9999 31.1721Z" fill="white"/>
</svg>
