<svg width="72" height="60" viewBox="0 0 72 60" fill="none" xmlns="http://www.w3.org/2000/svg">
<path d="M16.8929 9.6C11.548 9.6 7.2002 13.3687 7.2002 18C7.2002 18.3182 7.32662 18.6236 7.55162 18.8486C7.77662 19.0736 8.08198 19.2 8.4002 19.2H63.6002C63.9184 19.2 64.2238 19.0736 64.4488 18.8486C64.6738 18.6236 64.8002 18.3182 64.8002 18C64.8002 13.3687 60.4524 9.6 55.1075 9.6H39.6007V7.2H42.0007C42.319 7.2 42.6243 7.07357 42.8493 6.84857C43.0743 6.62357 43.2007 6.31821 43.2007 6V1.2C43.2007 0.881787 43.0743 0.576425 42.8493 0.351429C42.6243 0.126432 42.319 0 42.0007 0H30.0007C29.6825 0 29.3772 0.126429 29.1522 0.351429C28.9272 0.576428 28.8007 0.881787 28.8007 1.2V6C28.8007 6.31821 28.9272 6.62358 29.1522 6.84857C29.3772 7.07357 29.6825 7.2 30.0007 7.2H32.4007V9.6H16.8929ZM62.2543 16.8H9.74639C10.4235 14.0647 13.3711 12 16.8922 12H55.1071C58.6289 12 61.5758 14.0647 62.2529 16.8H62.2543ZM31.201 2.4H40.801V4.8H31.201V2.4ZM34.801 7.2H37.201V9.6H34.801V7.2Z" fill="black"/>
<path d="M64.8 46.8001V31.2001H68.4C69.6862 31.2001 70.8745 30.5138 71.5178 29.4001C72.1607 28.2863 72.1607 26.9138 71.5178 25.8001C70.8744 24.6863 69.6863 24.0001 68.4 24.0001H64.8V22.8001C64.8 22.4819 64.6736 22.1765 64.4486 21.9515C64.2236 21.7265 63.9182 21.6001 63.6 21.6001H8.4C8.08179 21.6001 7.77642 21.7265 7.55143 21.9515C7.32643 22.1765 7.2 22.4819 7.2 22.8001V24.0001H3.6C2.31375 24.0001 1.12553 24.6863 0.482194 25.8001C-0.160663 26.9138 -0.160663 28.2864 0.482194 29.4001C1.12559 30.5138 2.31374 31.2001 3.6 31.2001H7.2V46.8001C7.2 49.0598 8.1134 51.2241 9.73289 52.8001H1.2C0.881787 52.8001 0.576425 52.9265 0.351429 53.1515C0.126432 53.3765 0 53.6819 0 54.0001V58.8001C0 59.1183 0.126429 59.4237 0.351429 59.6487C0.576428 59.8737 0.881787 60.0001 1.2 60.0001H70.8C71.1182 60.0001 71.4236 59.8737 71.6486 59.6487C71.8736 59.4237 72 59.1183 72 58.8001V54.0001C72 53.6819 71.8736 53.3765 71.6486 53.1515C71.4236 52.9265 71.1182 52.8001 70.8 52.8001H62.2671C63.8866 51.2241 64.8 49.0598 64.8 46.8001ZM68.4 26.4001C69.0627 26.4001 69.6 26.9374 69.6 27.6001C69.6 28.2628 69.0627 28.8001 68.4 28.8001H64.8V26.4001H68.4ZM3.6 28.8001C2.93733 28.8001 2.4 28.2628 2.4 27.6001C2.4 26.9374 2.93733 26.4001 3.6 26.4001H7.2V28.8001H3.6ZM69.6 55.2001V57.6001H2.4V55.2001H69.6ZM15.6 52.8001C14.0094 52.798 12.4843 52.1653 11.3593 51.0408C10.2348 49.9158 9.60219 48.3907 9.6 46.8001V24.0001H62.4V46.8001C62.3979 48.3907 61.7652 49.9158 60.6407 51.0408C59.5157 52.1653 57.9906 52.7979 56.4 52.8001H15.6Z" fill="black"/>
<path d="M16.8 47.9999C16.1635 47.9988 15.5539 47.7459 15.1039 47.2959C14.6539 46.846 14.4011 46.2363 14.4 45.5999C14.4 44.9372 13.8627 44.3999 13.2 44.3999C12.5373 44.3999 12 44.9372 12 45.5999C12.0011 46.8728 12.5073 48.0926 13.4074 48.9925C14.3074 49.8925 15.5272 50.3988 16.8 50.3999C17.4627 50.3999 18 49.8626 18 49.1999C18 48.5372 17.4627 47.9999 16.8 47.9999L16.8 47.9999Z" fill="black"/>
</svg>
