<svg width="40" height="40" viewBox="0 0 40 40" fill="none" xmlns="http://www.w3.org/2000/svg">
<path d="M26.2581 23.7583H24.9415L24.4748 23.3083C26.1081 21.4083 27.0915 18.9417 27.0915 16.2583C27.0915 10.275 22.2415 5.425 16.2581 5.425C10.2748 5.425 5.4248 10.275 5.4248 16.2583C5.4248 22.2417 10.2748 27.0917 16.2581 27.0917C18.9415 27.0917 21.4081 26.1083 23.3081 24.475L23.7581 24.9417V26.2583L32.0915 34.575L34.5748 32.0917L26.2581 23.7583ZM16.2581 23.7583C12.1081 23.7583 8.75814 20.4083 8.75814 16.2583C8.75814 12.1083 12.1081 8.75834 16.2581 8.75834C20.4081 8.75834 23.7581 12.1083 23.7581 16.2583C23.7581 20.4083 20.4081 23.7583 16.2581 23.7583Z" fill="#1D1819" fill-opacity="0.2"/>
</svg>
