<svg width="279" height="305" viewBox="0 0 279 305" fill="none" xmlns="http://www.w3.org/2000/svg">
<mask id="mask0_22_2645" style="mask-type:alpha" maskUnits="userSpaceOnUse" x="0" y="0" width="279" height="305">
<rect width="279" height="304.998" transform="matrix(-1 0 0 1 279 0)" fill="#D9D9D9" fill-opacity="0.3"/>
</mask>
<g mask="url(#mask0_22_2645)">
<path fill-rule="evenodd" clip-rule="evenodd" d="M41.516 279.26C42.7593 277.54 42.3733 275.144 40.6526 273.902C38.9333 272.659 36.5375 273.045 35.2944 274.766C34.0509 276.485 34.4369 278.881 36.1577 280.124C37.8786 281.367 40.2739 280.981 41.516 279.26Z" fill="white"/>
<path fill-rule="evenodd" clip-rule="evenodd" d="M99.8152 187.378C99.9717 188.349 100.5 189.259 101.357 189.879C103.078 191.122 105.474 190.736 106.717 189.015L120.208 170.342C121.452 168.626 121.065 166.226 119.344 164.982C117.629 163.743 115.23 164.129 113.986 165.846L100.494 184.519C99.8743 185.378 99.6589 186.408 99.8152 187.378" fill="white"/>
<path fill-rule="evenodd" clip-rule="evenodd" d="M104.57 192.204L44.5487 281.619C43.4971 283.172 41.8231 284.228 39.8492 284.573C37.7626 284.944 35.5948 284.453 33.9086 283.236C32.2232 282.015 31.0918 280.131 30.7697 278.01C30.4811 276.03 30.9572 274.11 32.1107 272.606L98.1356 187.555L104.57 192.204ZM23.207 279.346C23.8599 283.398 26.1125 287.074 29.4134 289.458C32.7666 291.886 37.0617 292.862 41.184 292.136C45.2154 291.428 48.6691 289.219 50.9134 285.914L113.014 193.402C114.164 191.684 113.752 189.364 112.074 188.152L99.6288 179.157C97.9511 177.946 95.6145 178.283 94.3455 179.918L26.0338 267.913C23.5907 271.095 22.578 275.068 23.1736 279.122C23.1823 279.195 23.1945 279.271 23.2067 279.346L23.207 279.346Z" fill="white"/>
<path fill-rule="evenodd" clip-rule="evenodd" d="M203.167 93.8856C204.859 104.384 202.486 115.46 195.876 124.609L188.684 134.565C179.037 147.917 151.655 159.733 133.538 167.552L130.902 168.688C128.423 169.765 125.522 169.45 123.338 167.874L115.346 162.095C113.159 160.519 111.947 157.867 112.193 155.173L112.447 152.305C114.18 132.652 116.801 102.949 126.441 89.601L153.677 51.9024C155.735 49.0538 158.929 47.2799 162.436 47.0338C165.939 46.7884 169.346 48.1017 171.782 50.6381L192.185 71.8794C198.181 78.1224 201.869 85.8355 203.166 93.8856M104.679 158.281C105.321 162.261 107.52 165.916 110.851 168.322L118.843 174.096C123.209 177.251 128.995 177.879 133.955 175.736L136.579 174.603C156.601 165.96 184.019 154.129 194.906 139.061L202.099 129.106C215.955 109.93 214.112 83.6252 197.722 66.5623L177.316 45.3167C173.303 41.1376 167.681 38.9706 161.898 39.3736C156.118 39.7808 150.851 42.706 147.453 47.4064L120.219 85.1047C109.335 100.169 106.712 129.912 104.802 151.631L104.543 154.492C104.429 155.766 104.479 157.039 104.68 158.281" fill="white"/>
<path fill-rule="evenodd" clip-rule="evenodd" d="M140.284 131.363C140.44 132.333 140.966 133.243 141.826 133.864C143.547 135.108 145.942 134.722 147.186 133.001L180.907 86.3205C182.151 84.5996 181.765 82.2043 180.044 80.9607C178.326 79.7169 175.928 80.1034 174.684 81.8243L140.962 128.505C140.341 129.363 140.127 130.392 140.284 131.363" fill="white"/>
<path fill-rule="evenodd" clip-rule="evenodd" d="M155.841 142.603C155.997 143.573 156.526 144.484 157.385 145.104C159.106 146.347 161.5 145.961 162.743 144.241L194.218 100.675C195.461 98.9537 195.075 96.5554 193.354 95.3148C191.637 94.0711 189.238 94.4575 187.995 96.1784L156.521 139.744C155.9 140.602 155.685 141.632 155.841 142.603" fill="white"/>
<path fill-rule="evenodd" clip-rule="evenodd" d="M124.723 120.124C124.879 121.094 125.407 122.003 126.265 122.623C127.986 123.866 130.381 123.48 131.625 121.76L167.598 71.9672C168.841 70.2463 168.455 67.851 166.735 66.6074C165.017 65.3637 162.618 65.7501 161.375 67.471L125.401 117.263C124.782 118.121 124.566 119.151 124.723 120.122" fill="white"/>
<path d="M168.197 12.8551C169.948 14.112 172.227 14.3632 174.209 13.5175C173.008 15.3088 172.758 17.5739 173.541 19.5839C171.76 18.356 169.48 18.1048 167.475 18.9155C168.673 17.1288 168.942 14.8734 168.197 12.8551L168.197 12.8551Z" fill="white"/>
<path d="M159.932 12.8952C156.908 12.47 153.871 13.5532 151.798 15.7943C152.241 12.7831 151.178 9.74301 148.953 7.66625C151.897 8.13261 154.879 7.10052 156.903 4.91396C156.505 7.9152 157.643 10.9137 159.931 12.895L159.932 12.8952Z" fill="white"/>
<path d="M138.474 12.6488C134.362 13.9127 131.142 17.1338 129.879 21.2459C128.615 17.1546 125.423 13.9445 121.336 12.6598C125.441 11.43 128.648 8.21494 129.87 4.11087C131.125 8.2187 134.355 11.425 138.474 12.6488Z" fill="white"/>
<path d="M110.956 25.3039C106.503 29.4009 104.34 35.4172 105.162 41.4112C101.127 36.8651 95.0705 34.6653 89.0606 35.5631C93.5788 31.5107 95.7371 25.4462 94.7979 19.4496C98.8544 23.9982 104.926 26.1996 110.956 25.304L110.956 25.3039Z" fill="white"/>
<path d="M85.9104 81.8784C78.0662 78.5971 69.1052 79.4315 61.9974 84.0982C65.3229 76.3061 64.457 67.3595 59.7026 60.3467C67.5769 63.5391 76.5217 62.6208 83.5832 57.8991C80.3618 65.7875 81.2301 74.7568 85.9103 81.8787L85.9104 81.8784Z" fill="white"/>
<path d="M39.3794 133.355C51.3409 132.744 62.2049 126.189 68.321 115.891C68.9595 127.85 75.4434 138.729 85.6563 144.985C73.7125 145.528 62.8262 151.991 56.6314 162.215C56.1382 150.294 49.6469 139.435 39.3801 133.355L39.3794 133.355Z" fill="white"/>
<path d="M144.229 199.366C142.483 198.221 140.296 197.986 138.347 198.734C139.476 196.985 139.692 194.8 138.925 192.866C140.679 193.983 142.853 194.216 144.808 193.497C143.695 195.25 143.478 197.428 144.229 199.366Z" fill="white"/>
<path d="M160.555 196.268C160.125 199.294 161.215 202.338 163.469 204.402C160.461 203.994 157.453 205.143 155.484 207.449C155.881 204.431 154.753 201.413 152.475 199.395C155.519 199.745 158.54 198.575 160.555 196.268L160.555 196.268Z" fill="white"/>
<path d="M173.912 199.302C177.996 198.005 181.182 194.78 182.435 190.68C183.731 194.767 186.955 197.953 191.055 199.204C186.975 200.457 183.79 203.668 182.571 207.758C181.273 203.673 178.027 200.503 173.912 199.302L173.912 199.302Z" fill="white"/>
<path d="M201.185 186.519C205.583 182.367 207.669 176.324 206.77 170.343C210.853 174.792 216.882 176.914 222.85 176.009C218.514 180.038 216.47 185.963 217.4 191.808C213.223 187.44 207.133 185.452 201.184 186.519L201.185 186.519Z" fill="white"/>
<path d="M228.463 153.589C231.564 145.683 230.613 136.76 225.913 129.685C233.781 132.901 242.741 131.971 249.778 127.203C246.547 135.053 247.495 144.003 252.301 151C244.42 147.835 235.481 148.806 228.463 153.589L228.463 153.589Z" fill="white"/>
<path d="M225.575 66.53C237.52 65.8853 248.355 59.3281 254.464 49.0449C255.065 60.9774 261.651 71.7977 271.977 77.8112C260.039 78.5513 249.25 85.1813 243.196 95.4969C242.418 83.5405 235.836 72.7208 225.575 66.53Z" fill="white"/>
</g>
</svg>
