<svg width="210" height="200" viewBox="0 0 210 200" fill="none" xmlns="http://www.w3.org/2000/svg">
<path d="M165.064 199.968C163.961 199.983 162.87 199.74 161.878 199.257L104.837 171.364L47.7963 199.257C45.3534 200.448 42.4541 200.193 40.2573 198.593C38.0601 196.996 36.9279 194.313 37.3111 191.621L46.0351 128.708L2.03646 83.2874C0.1436 81.3068 -0.491294 78.4396 0.392258 75.8475C1.27289 73.2554 3.52563 71.3683 6.23185 70.9559L68.6415 59.8413L98.3364 3.59562C99.7407 1.36041 102.195 0 104.837 0C107.479 0 109.934 1.36041 111.338 3.59562L141.2 59.5454L203.609 70.7035C206.319 71.116 208.568 73.003 209.452 75.5951C210.333 78.1872 209.698 81.0544 207.805 83.035L163.555 128.792L172.279 191.705C172.653 194.388 171.527 197.062 169.344 198.668C168.083 199.528 166.591 199.982 165.064 199.967L165.064 199.968Z" fill="#FFDE59"/>
</svg>
