<svg width="210" height="200" viewBox="0 0 210 200" fill="none" xmlns="http://www.w3.org/2000/svg">
<path d="M165.064 199.968C163.961 199.983 162.87 199.74 161.878 199.257L104.837 171.364L47.7963 199.257C45.3534 200.448 42.4541 200.193 40.2573 198.593C38.0601 196.996 36.9279 194.313 37.3111 191.621L46.0351 128.708L2.03646 83.2874C0.1436 81.3068 -0.491294 78.4396 0.392258 75.8475C1.27289 73.2554 3.52563 71.3683 6.23185 70.9559L68.6415 59.8413L98.3364 3.59562C99.7407 1.36041 102.195 0 104.837 0C107.479 0 109.934 1.36041 111.338 3.59562L141.2 59.5454L203.609 70.7035C206.319 71.116 208.568 73.003 209.452 75.5951C210.333 78.1872 209.698 81.0544 207.805 83.035L163.555 128.792L172.279 191.705C172.653 194.388 171.527 197.062 169.344 198.668C168.083 199.528 166.591 199.982 165.064 199.967L165.064 199.968ZM22.2147 82.8677L59.1243 121.036C60.6866 122.665 61.4151 124.924 61.0962 127.159L53.7557 179.964L101.611 156.729C103.656 155.76 106.026 155.76 108.071 156.729L155.884 179.964L148.585 127.285C148.225 125.009 148.956 122.694 150.557 121.036L187.466 82.7418L135.08 73.558C132.901 73.1133 131.037 71.712 130.007 69.74L104.841 22.807L79.6738 69.74C78.6177 71.7441 76.7014 73.1484 74.475 73.558L22.2147 82.8677Z" fill="#FFDE59"/>
</svg>
