<svg width="40" height="40" viewBox="0 0 40 40" fill="none" xmlns="http://www.w3.org/2000/svg">
<rect width="40" height="40" rx="20" fill="#B11226"/>
<path d="M30.9552 15.8506C30.9703 16.0732 30.9703 16.2957 30.9703 16.5203C30.9703 23.3644 25.8335 31.2578 16.4405 31.2578V31.2537C13.6657 31.2578 10.9487 30.4516 8.61279 28.9316C9.01626 28.9808 9.42175 29.0055 9.82825 29.0065C12.1277 29.0085 14.3614 28.226 16.1705 26.7849C13.9853 26.7429 12.0691 25.2978 11.3996 23.188C12.1651 23.3378 12.9539 23.307 13.7052 23.0988C11.3228 22.6106 9.60882 20.4875 9.60882 18.0219C9.60882 17.9993 9.60882 17.9778 9.60882 17.9562C10.3187 18.3573 11.1135 18.5798 11.9265 18.6044C9.68264 17.0834 8.99098 14.0557 10.346 11.6885C12.9387 14.9244 16.764 16.8916 20.8705 17.0998C20.4589 15.3008 21.0212 13.4157 22.3479 12.1511C24.4046 10.1901 27.6394 10.2906 29.5729 12.3757C30.7165 12.147 31.8126 11.7214 32.8158 11.1183C32.4345 12.3173 31.6367 13.3357 30.5709 13.9829C31.5831 13.8619 32.5721 13.587 33.5034 13.1675C32.8178 14.2096 31.9542 15.1173 30.9552 15.8506Z" fill="white"/>
</svg>
