<svg width="26" height="22" viewBox="0 0 26 22" fill="none" xmlns="http://www.w3.org/2000/svg">
<path d="M22.9552 5.85059C22.9703 6.07315 22.9703 6.29572 22.9703 6.52033C22.9703 13.3644 17.8335 21.2578 8.44046 21.2578V21.2537C5.66574 21.2578 2.94865 20.4516 0.612793 18.9316C1.01626 18.9808 1.42175 19.0055 1.82825 19.0065C4.12771 19.0085 6.36144 18.226 8.17047 16.7849C5.98527 16.7429 4.06906 15.2978 3.39965 13.188C4.16512 13.3378 4.95386 13.307 5.70517 13.0988C3.3228 12.6106 1.60882 10.4875 1.60882 8.02187C1.60882 7.99931 1.60882 7.97777 1.60882 7.95623C2.31868 8.35725 3.11348 8.57982 3.92648 8.60443C1.68264 7.08341 0.99098 4.05572 2.34598 1.68854C4.93869 4.92443 8.76404 6.89161 12.8705 7.09982C12.4589 5.30084 13.0212 3.41572 14.3479 2.1511C16.4046 0.190075 19.6394 0.290588 21.5729 2.37572C22.7165 2.147 23.8127 1.72136 24.8158 1.11828C24.4345 2.31725 23.6367 3.33572 22.5709 3.9829C23.5831 3.86187 24.5721 3.587 25.5034 3.16751C24.8178 4.20956 23.9542 5.11726 22.9552 5.85059Z" fill="white"/>
</svg>
